<svg width="47" height="55" viewBox="0 0 47 55" fill="none" xmlns="http://www.w3.org/2000/svg">
<path d="M46.0093 18.9022L24.8884 0.564028C24.0322 -0.188009 22.8334 -0.188009 21.9772 0.564028L0.79917 18.9022C0.285418 19.365 0 20.0013 0 20.6377V52.7439C0 54.0166 1.0275 55 2.22626 55H23.4043H44.5822C45.8381 55 46.8085 53.9587 46.8085 52.7439V20.6377C46.8085 20.0013 46.5231 19.365 46.0093 18.9022ZM27.343 40.3063C24.8313 42.0418 21.1209 41.6369 18.2097 40.0171C17.1251 41.4633 16.1546 43.1988 15.3555 45.1657C15.1842 45.6285 14.7276 45.8599 14.328 45.8599C14.2138 45.8599 14.0426 45.8598 13.9284 45.802C13.3576 45.5706 13.0721 44.8764 13.3005 44.2979C16.7826 35.6784 23.5184 31.6868 24.7743 30.9348C24.7172 30.9348 24.6601 30.9348 24.603 30.9926C24.3176 31.0505 19.5226 32.6703 14.9559 37.2982C14.0426 36.0834 13.4717 34.6371 13.643 33.1331C14.2709 26.3647 23.8609 26.5383 30.083 20.1749C30.8251 19.4228 32.138 19.9435 32.1951 20.9848C32.4805 27.0589 31.6243 37.356 27.343 40.3063Z" fill="#E45BE5"/>
</svg>
