<svg width="64" height="60" viewBox="0 0 64 60" fill="none" xmlns="http://www.w3.org/2000/svg">
<path fill-rule="evenodd" clip-rule="evenodd" d="M46.059 26.5949L57.5337 28.644C60.6024 29.1919 62.8329 31.8168 62.8329 34.88V42.6214C62.8329 43.7153 61.9864 44.615 60.9016 44.7232C60.8293 44.7305 60.756 44.7341 60.6817 44.7341H56.8017C56.3071 46.452 55.2242 47.9273 53.7803 48.9369C52.4228 50.0224 50.6906 50.6732 48.8036 50.6732C45.081 50.6732 41.9608 48.1406 41.1317 44.7341H31.999H22.3825C21.8878 46.452 20.805 47.9273 19.361 48.9369C18.0036 50.0224 16.2713 50.6732 14.3843 50.6732C10.6617 50.6732 7.54152 48.1406 6.71243 44.7341H3.31624C2.1282 44.7341 1.16504 43.7882 1.16504 42.6214V32.7619C1.16504 29.2615 4.05454 26.4237 7.61866 26.4237H9.4793L16.0178 18.9581C16.4265 18.4764 17.0191 17.9727 17.6576 17.9727H31.999H37.7355C38.3739 17.9727 38.9794 18.2512 39.3881 18.7329L46.059 26.5949ZM31.3464 23.2044C31.4829 22.6583 31.2325 22.0891 30.7376 21.8209C30.2428 21.5527 29.6291 21.6536 29.2461 22.066L21.2295 30.6994C20.9377 31.0136 20.83 31.4569 20.9453 31.87C21.0605 32.2831 21.3821 32.6066 21.7944 32.7245L24.9641 33.6301L23.4034 39.8728C23.269 40.4106 23.5099 40.972 23.9923 41.2452C24.4747 41.5183 25.08 41.436 25.472 41.044L34.1054 32.4107C34.4195 32.0965 34.5404 31.6376 34.4218 31.2094C34.3032 30.7812 33.9635 30.4498 33.5324 30.3421L29.7956 29.4079L31.3464 23.2044Z" fill="#4B4B4B"/>
</svg>
