<svg width="81" height="82" viewBox="0 0 81 82" fill="none" xmlns="http://www.w3.org/2000/svg">
<path d="M80.5 41C80.5 63.0914 62.5914 81 40.5 81C18.4086 81 0.5 63.0914 0.5 41C0.5 18.9086 18.4086 1 40.5 1C62.5914 1 80.5 18.9086 80.5 41Z" fill="#181818" stroke="#6C6C6C"/>
<path d="M40.9883 26.0001C40.9544 26.0003 40.9206 26.0023 40.8869 26.0059C40.6401 26.034 40.4127 26.1531 40.249 26.34C40.0853 26.5268 39.997 26.7679 40.0015 27.0163V29.0136C39.9986 29.1466 40.0222 29.2789 40.0711 29.4026C40.1199 29.5264 40.193 29.6391 40.286 29.7342C40.379 29.8294 40.4901 29.9049 40.6127 29.9565C40.7353 30.0081 40.867 30.0347 41 30.0347C41.133 30.0347 41.2647 30.0081 41.3873 29.9565C41.5099 29.9049 41.621 29.8294 41.714 29.7342C41.807 29.6391 41.8801 29.5264 41.9289 29.4026C41.9778 29.2789 42.0014 29.1466 41.9985 29.0136V27.0163C42.0008 26.8827 41.9763 26.75 41.9265 26.626C41.8766 26.502 41.8024 26.3893 41.7082 26.2946C41.614 26.1998 41.5018 26.1249 41.3781 26.0743C41.2544 26.0238 41.1219 25.9985 40.9883 26.0001ZM31.1048 30.1001C31.0703 30.1002 31.0358 30.1022 31.0015 30.1059C30.8131 30.1263 30.6344 30.1999 30.4863 30.3181C30.3382 30.4363 30.2267 30.5942 30.165 30.7733C30.1032 30.9525 30.0937 31.1455 30.1375 31.3299C30.1814 31.5143 30.2767 31.6824 30.4125 31.8146L31.8205 33.2306C31.9128 33.3268 32.0232 33.4036 32.1455 33.4565C32.2678 33.5094 32.3994 33.5373 32.5326 33.5387C32.6659 33.54 32.798 33.5148 32.9213 33.4643C33.0447 33.4139 33.1567 33.3394 33.2508 33.2451C33.345 33.1508 33.4194 33.0387 33.4696 32.9153C33.5198 32.7918 33.5449 32.6596 33.5434 32.5264C33.5418 32.3931 33.5137 32.2615 33.4607 32.1393C33.4076 32.0171 33.3307 31.9067 33.2344 31.8146L31.8205 30.4082C31.728 30.3115 31.6169 30.2344 31.494 30.1814C31.371 30.1285 31.2387 30.1008 31.1048 30.1001ZM50.8659 30.1059C50.6072 30.1141 50.3618 30.2225 50.1814 30.4082L48.7656 31.8165C48.6694 31.9088 48.5927 32.0193 48.5398 32.1416C48.4869 32.2639 48.4589 32.3955 48.4576 32.5288C48.4562 32.662 48.4815 32.7942 48.5319 32.9175C48.5823 33.0409 48.6568 33.1529 48.7511 33.2471C48.8454 33.3412 48.9575 33.4156 49.0809 33.4659C49.2043 33.5161 49.3365 33.5412 49.4697 33.5397C49.6029 33.5381 49.7345 33.51 49.8567 33.457C49.9789 33.4039 50.0893 33.3269 50.1814 33.2306L51.5875 31.8165C51.7301 31.6762 51.8273 31.4963 51.8665 31.3002C51.9057 31.104 51.8851 30.9005 51.8073 30.7162C51.7296 30.5319 51.5983 30.3752 51.4304 30.2663C51.2626 30.1575 51.0659 30.1016 50.8659 30.1059ZM40.9961 32.0077C36.0449 32.0077 32.0117 36.0494 32.0117 41.0015C32.0116 45.9536 36.0449 49.9876 40.9961 49.9876C45.9473 49.9876 49.9884 45.9536 49.9883 41.0015C49.9883 36.0494 45.9473 32.0077 40.9961 32.0077ZM27.0212 39.9989C26.8881 39.996 26.7559 40.0196 26.6321 40.0684C26.5084 40.1173 26.3956 40.1904 26.3005 40.2834C26.2054 40.3764 26.1298 40.4875 26.0782 40.6102C26.0266 40.7328 26 40.8645 26 40.9976C26 41.1307 26.0266 41.2624 26.0782 41.3851C26.1298 41.5077 26.2054 41.6188 26.3005 41.7118C26.3956 41.8049 26.5084 41.8779 26.6321 41.9268C26.7559 41.9756 26.8881 41.9993 27.0212 41.9963H29.0201C29.1531 41.9993 29.2854 41.9756 29.4091 41.9268C29.5329 41.8779 29.6456 41.8049 29.7407 41.7118C29.8359 41.6188 29.9115 41.5077 29.9631 41.3851C30.0147 41.2624 30.0412 41.1307 30.0412 40.9976C30.0412 40.8645 30.0147 40.7328 29.9631 40.6102C29.9115 40.4875 29.8359 40.3764 29.7407 40.2834C29.6456 40.1904 29.5329 40.1173 29.4091 40.0684C29.2854 40.0196 29.1531 39.996 29.0201 39.9989H27.0212ZM52.9819 39.9989C52.8489 39.996 52.7166 40.0196 52.5928 40.0684C52.4691 40.1173 52.3563 40.1904 52.2612 40.2834C52.1661 40.3764 52.0905 40.4875 52.0389 40.6102C51.9873 40.7328 51.9607 40.8645 51.9607 40.9976C51.9607 41.1307 51.9873 41.2624 52.0389 41.3851C52.0905 41.5077 52.1661 41.6188 52.2612 41.7118C52.3563 41.8049 52.4691 41.8779 52.5928 41.9268C52.7166 41.9756 52.8489 41.9993 52.9819 41.9963H54.9788C55.1119 41.9993 55.2441 41.9756 55.3679 41.9268C55.4916 41.8779 55.6044 41.8049 55.6995 41.7118C55.7946 41.6188 55.8702 41.5077 55.9218 41.3851C55.9734 41.2624 56 41.1307 56 40.9976C56 40.8645 55.9734 40.7328 55.9218 40.6102C55.8702 40.4875 55.7946 40.3764 55.6995 40.2834C55.6044 40.1904 55.4916 40.1173 55.3679 40.0684C55.2441 40.0196 55.1119 39.996 54.9788 39.9989H52.9819ZM32.5187 48.4603C32.5141 48.4609 32.5096 48.4616 32.505 48.4622C32.2463 48.4705 32.0009 48.5789 31.8205 48.7646L30.4125 50.1787C30.308 50.2682 30.2231 50.3784 30.1632 50.5023C30.1033 50.6262 30.0696 50.7612 30.0643 50.8987C30.059 51.0363 30.0822 51.1734 30.1324 51.3016C30.1826 51.4297 30.2587 51.5461 30.356 51.6435C30.4534 51.7408 30.5697 51.8169 30.6979 51.8672C30.826 51.9174 30.9631 51.9405 31.1006 51.9352C31.2381 51.9299 31.3731 51.8963 31.497 51.8363C31.6208 51.7764 31.731 51.6915 31.8205 51.587L33.2344 50.1787C33.3794 50.0392 33.4789 49.8592 33.5199 49.6622C33.5609 49.4652 33.5414 49.2605 33.4641 49.0747C33.3867 48.889 33.2551 48.7309 33.0864 48.6213C32.9177 48.5117 32.7198 48.4555 32.5187 48.4603ZM49.4657 48.4622C49.2663 48.4611 49.0712 48.5197 48.9054 48.6305C48.7396 48.7412 48.6107 48.8991 48.5354 49.0837C48.4601 49.2684 48.4418 49.4713 48.4828 49.6665C48.5238 49.8616 48.6223 50.04 48.7656 50.1787L50.1814 51.587C50.2706 51.6928 50.3808 51.7788 50.5049 51.8398C50.6291 51.9007 50.7646 51.9352 50.9028 51.941C51.041 51.9469 51.1789 51.9239 51.3078 51.8736C51.4367 51.8233 51.5537 51.7468 51.6514 51.6489C51.7492 51.551 51.8255 51.4339 51.8756 51.3049C51.9257 51.1759 51.9485 51.038 51.9425 50.8997C51.9365 50.7615 51.9018 50.6261 51.8407 50.5019C51.7796 50.3778 51.6934 50.2677 51.5875 50.1787L50.1814 48.7646C50.0884 48.6689 49.9771 48.5929 49.8542 48.5409C49.7312 48.489 49.5991 48.4623 49.4657 48.4622ZM40.9824 51.9712C40.7187 51.9759 40.4674 52.0847 40.2836 52.2741C40.0998 52.4634 39.9984 52.7177 40.0015 52.9816V54.9789C39.9986 55.1119 40.0222 55.2442 40.0711 55.3679C40.1199 55.4917 40.193 55.6044 40.286 55.6995C40.379 55.7947 40.4901 55.8702 40.6127 55.9218C40.7353 55.9734 40.867 56 41 56C41.133 56 41.2647 55.9734 41.3873 55.9218C41.5099 55.8702 41.621 55.7947 41.714 55.6995C41.807 55.6044 41.8801 55.4917 41.9289 55.3679C41.9778 55.2442 42.0014 55.1119 41.9985 54.9789V52.9816C42.0001 52.848 41.9748 52.7154 41.9242 52.5917C41.8737 52.4681 41.7988 52.3558 41.704 52.2616C41.6093 52.1674 41.4966 52.0931 41.3727 52.0432C41.2487 51.9934 41.116 51.9689 40.9824 51.9712Z" fill="#6C6C6C"/>
</svg>
