<svg width="82" height="82" viewBox="0 0 82 82" fill="none" xmlns="http://www.w3.org/2000/svg">
<path d="M81 41C81 63.0914 63.0914 81 41 81C18.9086 81 1 63.0914 1 41C1 18.9086 18.9086 1 41 1C63.0914 1 81 18.9086 81 41Z" fill="#181818" stroke="#6C6C6C"/>
<path fill-rule="evenodd" clip-rule="evenodd" d="M33.8001 53C33.8001 54.3255 34.8746 55.4 36.2001 55.4H45.8001C47.1255 55.4 48.2001 54.3255 48.2001 53L48.2001 31.4C48.2001 30.0745 47.1255 29 45.8 29H36.2C34.8746 29 33.8 30.0745 33.8 31.4L33.8001 53ZM43.0264 35.0986C43.2955 34.8604 43.7165 35.087 43.632 35.4245L42.1279 41.4274L44.451 42.6778C44.6656 42.7934 44.6941 43.0775 44.5073 43.2403L38.9264 48.1051C38.6576 48.3394 38.2412 48.1153 38.3223 47.78L39.7888 41.7199L37.5804 40.5312C37.3668 40.4162 37.3374 40.134 37.5219 39.9706L43.0264 35.0986Z" fill="#6C6C6C"/>
<mask id="path-3-inside-1_3360_67490" fill="white">
<path d="M37.7633 27.7998C37.5626 27.7998 37.3999 27.6371 37.3999 27.4364L37.3999 27.0899C37.3999 26.4879 37.8879 25.9998 38.49 25.9998L43.5098 25.9998C44.1119 25.9998 44.5999 26.4879 44.5999 27.0899L44.5999 27.4364C44.5999 27.6371 44.4372 27.7998 44.2365 27.7998L37.7633 27.7998Z"/>
</mask>
<path d="M37.7633 27.7998C37.5626 27.7998 37.3999 27.6371 37.3999 27.4364L37.3999 27.0899C37.3999 26.4879 37.8879 25.9998 38.49 25.9998L43.5098 25.9998C44.1119 25.9998 44.5999 26.4879 44.5999 27.0899L44.5999 27.4364C44.5999 27.6371 44.4372 27.7998 44.2365 27.7998L37.7633 27.7998Z" fill="#6C6C6C" stroke="#6C6C6C" stroke-width="1.8" mask="url(#path-3-inside-1_3360_67490)"/>
</svg>
