<svg width="82" height="82" viewBox="0 0 82 82" fill="none" xmlns="http://www.w3.org/2000/svg">
<path d="M81 41C81 63.0914 63.0914 81 41 81C18.9086 81 1 63.0914 1 41C1 18.9086 18.9086 1 41 1C63.0914 1 81 18.9086 81 41Z" fill="#1D1D1D" stroke="#B0B0B0"/>
<path d="M33 35H49" stroke="#B0B0B0" stroke-width="2.12486" stroke-linecap="round"/>
<path d="M29 45H53" stroke="#B0B0B0" stroke-width="2.12486" stroke-linecap="round"/>
<path fill-rule="evenodd" clip-rule="evenodd" d="M37.5901 49.8854L40.6718 48.1957C40.8211 48.1139 41.0017 48.1136 41.1512 48.195L44.238 49.8753L44.6119 50.0788L46.8353 51.2891L51.027 53.5709L51.6102 53.8884C52.3575 54.2952 53.1925 53.5165 52.8387 52.7427L52.5627 52.1387L50.5784 47.7982L50.2423 47.0628C50.1609 46.8849 49.9832 46.7707 49.7875 46.7707H32.1297C31.934 46.7707 31.7563 46.8849 31.6749 47.0628L31.3444 47.7858L29.3581 52.1301L29.0838 52.7302C28.7294 53.5052 29.5674 54.2844 30.3147 53.8746L30.8932 53.5574L35.0817 51.2608L37.3279 50.0292L37.5901 49.8854ZM33.9951 43.2293C33.7296 43.2293 33.5532 42.9546 33.6636 42.7132L36.1257 37.3279L36.2469 37.0628C36.3283 36.8849 36.506 36.7707 36.7017 36.7707H45.2162C45.4118 36.7707 45.5895 36.8849 45.6709 37.0628L45.9306 37.6309L48.232 42.6654C48.3526 42.9292 48.1598 43.2293 47.8698 43.2293H33.9951ZM38.3233 32.5214C38.1719 32.8525 38.4139 33.2293 38.778 33.2293H43.1401C43.5042 33.2293 43.7462 32.8526 43.5948 32.5214L42.1899 29.448L41.7644 28.5173C41.4491 27.8276 40.4693 27.8276 40.154 28.5172L39.7285 29.448L38.3233 32.5214Z" fill="#B0B0B0"/>
</svg>
