<svg width="61" height="60" viewBox="0 0 61 60" fill="none" xmlns="http://www.w3.org/2000/svg">
<path d="M58.5 30C58.5 45.464 45.964 58 30.5 58C15.036 58 2.5 45.464 2.5 30C2.5 14.536 15.036 2 30.5 2C45.964 2 58.5 14.536 58.5 30Z" fill="#13211C" stroke="#979797"/>
<rect x="35.0293" y="20.293" width="6.47077" height="1.29415" rx="0.647077" fill="#979797"/>
<rect x="35.0293" y="39.707" width="6.47077" height="1.29415" rx="0.647077" fill="#979797"/>
<rect x="19.5" y="39.707" width="6.47077" height="1.29415" rx="0.647077" fill="#979797"/>
<path d="M19.5 20.2942C19.5 19.5794 20.0794 19 20.7942 19H26.3325C26.6395 19 26.9366 19.1092 27.1706 19.3081L28.5119 20.4482C28.9707 20.8381 28.6949 21.5883 28.0928 21.5883H20.1471C19.7897 21.5883 19.5 21.2986 19.5 20.9412V20.2942Z" fill="#979797"/>
<mask id="path-6-inside-1_3679_21246" fill="white">
<path fill-rule="evenodd" clip-rule="evenodd" d="M19.4973 22.2344C18.7825 22.2344 18.2031 22.8138 18.2031 23.5285V37.7642C18.2031 38.479 18.7825 39.0584 19.4973 39.0584H41.4979C42.2126 39.0584 42.792 38.479 42.792 37.7642V23.5285C42.792 22.8138 42.2126 22.2344 41.4979 22.2344H19.4973ZM32.4183 26.2767C32.49 25.9902 32.3585 25.6916 32.0989 25.5509C31.8393 25.4102 31.5174 25.4631 31.3164 25.6795L27.1104 30.209C26.9573 30.3739 26.9009 30.6064 26.9613 30.8232C27.0218 31.0399 27.1905 31.2097 27.4068 31.2715L29.0698 31.7466L28.251 35.0219C28.1804 35.3041 28.3068 35.5986 28.5599 35.7419C28.813 35.8852 29.1306 35.842 29.3363 35.6364L33.8658 31.1068C34.0307 30.942 34.0941 30.7012 34.0319 30.4766C33.9696 30.2519 33.7914 30.0781 33.5652 30.0215L31.6047 29.5314L32.4183 26.2767Z"/>
</mask>
<path fill-rule="evenodd" clip-rule="evenodd" d="M19.4973 22.2344C18.7825 22.2344 18.2031 22.8138 18.2031 23.5285V37.7642C18.2031 38.479 18.7825 39.0584 19.4973 39.0584H41.4979C42.2126 39.0584 42.792 38.479 42.792 37.7642V23.5285C42.792 22.8138 42.2126 22.2344 41.4979 22.2344H19.4973ZM32.4183 26.2767C32.49 25.9902 32.3585 25.6916 32.0989 25.5509C31.8393 25.4102 31.5174 25.4631 31.3164 25.6795L27.1104 30.209C26.9573 30.3739 26.9009 30.6064 26.9613 30.8232C27.0218 31.0399 27.1905 31.2097 27.4068 31.2715L29.0698 31.7466L28.251 35.0219C28.1804 35.3041 28.3068 35.5986 28.5599 35.7419C28.813 35.8852 29.1306 35.842 29.3363 35.6364L33.8658 31.1068C34.0307 30.942 34.0941 30.7012 34.0319 30.4766C33.9696 30.2519 33.7914 30.0781 33.5652 30.0215L31.6047 29.5314L32.4183 26.2767Z" fill="#979797"/>
<path d="M32.0989 25.5509L31.7906 26.1198L31.7906 26.1198L32.0989 25.5509ZM32.4183 26.2767L33.0461 26.4336L33.0461 26.4336L32.4183 26.2767ZM31.3164 25.6795L31.7906 26.1198V26.1198L31.3164 25.6795ZM27.1104 30.209L27.5846 30.6493V30.6493L27.1104 30.209ZM26.9613 30.8232L26.338 30.9971L26.338 30.9971L26.9613 30.8232ZM27.4068 31.2715L27.2291 31.8937L27.2291 31.8937L27.4068 31.2715ZM29.0698 31.7466L29.6976 31.9036L29.8494 31.2964L29.2476 31.1244L29.0698 31.7466ZM28.5599 35.7419L28.2411 36.305L28.2411 36.305L28.5599 35.7419ZM29.3363 35.6364L28.8787 35.1788L28.8787 35.1788L29.3363 35.6364ZM33.8658 31.1068L33.4083 30.6493L33.4083 30.6493L33.8658 31.1068ZM34.0319 30.4766L33.4083 30.6493V30.6493L34.0319 30.4766ZM33.5652 30.0215L33.4083 30.6493L33.4083 30.6493L33.5652 30.0215ZM31.6047 29.5314L30.9769 29.3745L30.82 30.0022L31.4477 30.1592L31.6047 29.5314ZM18.8502 23.5285C18.8502 23.1712 19.1399 22.8815 19.4973 22.8815V21.5873C18.4252 21.5873 17.556 22.4564 17.556 23.5285H18.8502ZM18.8502 37.7642V23.5285H17.556V37.7642H18.8502ZM19.4973 38.4113C19.1399 38.4113 18.8502 38.1216 18.8502 37.7642H17.556C17.556 38.8363 18.4252 39.7054 19.4973 39.7054V38.4113ZM41.4979 38.4113H19.4973V39.7054H41.4979V38.4113ZM42.145 37.7642C42.145 38.1216 41.8553 38.4113 41.4979 38.4113V39.7054C42.57 39.7054 43.4391 38.8363 43.4391 37.7642H42.145ZM42.145 23.5285V37.7642H43.4391V23.5285H42.145ZM41.4979 22.8815C41.8553 22.8815 42.145 23.1712 42.145 23.5285H43.4391C43.4391 22.4564 42.57 21.5873 41.4979 21.5873V22.8815ZM19.4973 22.8815H41.4979V21.5873H19.4973V22.8815ZM31.7906 26.1198L31.7906 26.1198L33.0461 26.4336C33.1893 25.8607 32.9265 25.2634 32.4073 24.982L31.7906 26.1198ZM31.7906 26.1198L31.7906 26.1198L32.4073 24.982C31.888 24.7005 31.2441 24.8064 30.8422 25.2391L31.7906 26.1198ZM27.5846 30.6493L31.7906 26.1198L30.8422 25.2391L26.6362 29.7687L27.5846 30.6493ZM27.5846 30.6493V30.6493L26.6362 29.7687C26.33 30.0984 26.2171 30.5636 26.338 30.9971L27.5846 30.6493ZM27.5846 30.6493L27.5846 30.6493L26.338 30.9971C26.459 31.4305 26.7964 31.77 27.2291 31.8937L27.5846 30.6493ZM29.2476 31.1244L27.5846 30.6493L27.2291 31.8937L28.892 32.3688L29.2476 31.1244ZM28.8787 35.1788L29.6976 31.9036L28.442 31.5897L27.6232 34.865L28.8787 35.1788ZM28.8787 35.1788L28.8787 35.1788L27.6232 34.865C27.4821 35.4293 27.7349 36.0184 28.2411 36.305L28.8787 35.1788ZM28.8787 35.1788L28.8787 35.1788L28.2411 36.305C28.7473 36.5916 29.3825 36.5053 29.7938 36.0939L28.8787 35.1788ZM33.4083 30.6493L28.8787 35.1788L29.7938 36.0939L34.3234 31.5644L33.4083 30.6493ZM33.4083 30.6493L33.4083 30.6493L34.3234 31.5644C34.6531 31.2347 34.7799 30.7532 34.6555 30.3038L33.4083 30.6493ZM33.4083 30.6493L33.4083 30.6493L34.6555 30.3038C34.531 29.8545 34.1745 29.5069 33.7222 29.3938L33.4083 30.6493ZM31.4477 30.1592L33.4083 30.6493L33.7222 29.3938L31.7616 28.9036L31.4477 30.1592ZM31.7906 26.1198L30.9769 29.3745L32.2324 29.6883L33.0461 26.4336L31.7906 26.1198Z" fill="#979797" mask="url(#path-6-inside-1_3679_21246)"/>
</svg>
