<svg xmlns="http://www.w3.org/2000/svg" viewBox="0 0 74 92" width="52" height="64.65">
  <path d="M64.73,0H9.27A9.27,9.27 0,0 0,0 9.3V45H74V9.3A9.33,9.33 0,0 0,64.73 0ZM61.31,13H12.69A1.6,1.6 0,0 1,11 11.5,1.59 1.59,0 0,1 12.69,10H61.31A1.6,1.6 0,0 1,63 11.5,1.6 1.6,0 0,1 61.31,13Z" fill="currentColor"/>
  <path d="M0,51.77H0c0,0.25 0,0.51 0,0.78V82.7A9.27,9.27 0,0 0,9.27 92H64.73A9.27,9.27 0,0 0,74 82.7V52.55c0,-0.27 0,-0.53 0,-0.78h0V47H0ZM12.69,56H61.31a1.51,1.51 0,1 1,0 3H12.69a1.51,1.51 0,1 1,0 -3Z" fill="currentColor"/>
</svg>