<svg fill="none" height="31" viewBox="0 0 30 31" width="30" xmlns="http://www.w3.org/2000/svg" xmlns:xlink="http://www.w3.org/1999/xlink"><mask id="a" fill="#000" height="22" maskUnits="userSpaceOnUse" width="22" x="3.6582" y="3.94336"><path d="m3.6582 3.94336h22v22h-22z" fill="#fff"/><path clip-rule="evenodd" d="m13.1135 6.44336c0-.27614.2238-.5.5-.5h2.1424c.2761 0 .5.22386.5.5v1.10003c0 .23154.1596.4309.3813.49767 1.013.30508 1.9258.8414 2.6771 1.54762.1686.15846.4208.19682.6212.08114l.9543-.55099c.2392-.13807.545-.05614.683.18301l1.0712 1.85536c.1381.2392.0562.5449-.183.683l-.9529.5502c-.2003.1156-.2932.3532-.2404.5784.1162.4968.1777 1.0146.1777 1.5468s-.0615 1.0501-.1777 1.5468c-.0528.2253.0401.4628.2404.5785l.9529.5501c.2392.1381.3211.4439.183.683l-1.0712 1.8554c-.138.2391-.4438.3211-.683.183l-.9544-.551c-.2003-.1157-.4525-.0773-.6211.0811-.7513.7062-1.6641 1.2426-2.6771 1.5476-.2217.0668-.3813.2662-.3813.4977v1.1c0 .2762-.2239.5-.5.5h-2.1424c-.2762 0-.5-.2238-.5-.5v-1.1c0-.2315-.1597-.4309-.3814-.4977-1.013-.305-1.9258-.8413-2.677-1.5475-.1686-.1585-.42084-.1968-.62119-.0812l-.95443.5511c-.23914.138-.54494.0561-.68301-.183l-1.0712-1.8554c-.13807-.2392-.05613-.545.18302-.683l.9529-.5502c.20033-.1156.29321-.3532.24049-.5784-.11628-.4968-.17778-1.0147-.17778-1.5469s.06149-1.0501.17777-1.5468c.05272-.2253-.04016-.4628-.24049-.5785l-.95288-.5501c-.23915-.1381-.32108-.4439-.18301-.683l1.07119-1.85541c.13808-.23915.44387-.32108.68302-.18301l.95438.55101c.20035.11568.45259.07732.62112-.08114.7513-.7062 1.6641-1.24252 2.6771-1.54759.2217-.06677.3814-.26613.3814-.49768z" fill="#000" fill-rule="evenodd"/></mask><path d="m6.9083 11.8402-1 1.732zm-.18301-.683-1.73205-1zm1.13589 1.2331 1-1.732zm.00001 4.2506 1 1.7321zm.24049-.5784-1.94737.4558zm-1.37641 1.8116-1.73205 1zm.18302-.683-1-1.7321zm1.57119 2.7214-1-1.7321zm-.68301-.183 1.73205-1zm2.25863-.2869-1.36986 1.4572zm-.62119-.0812.99999 1.7321zm3.29819 1.6287.5767-1.915zm3.9051 0 .5767 1.9151zm4.9356-1.2607-1.732-1zm-.683.183-1 1.7321zm1.5712-2.7214-1 1.7321zm.183.683-1.732-1zm-1.1359-5.4836-1-1.7321zm-.2404.5784-1.9474.4558zm1.3763-1.8116 1.7321-1zm-.183.683 1 1.7321zm-1.5712-2.72137-1-1.73205zm-1.5755.46985-1.3698 1.45722zm.6212.08114 1 1.73208zm-3.2983-1.62876-.5767 1.91504zm3.2982 11.32034 1-1.7321zm-.6211.0811 1.3698 1.4573zm-11.51782-10.14071-1.73205-1zm.68302-.18301-1 1.73202zm7.2764-5.17542h-2.1424v4h2.1424zm2.5 3.60003v-1.10003h-4v1.10003zm-2.1954 2.41271c.7104.2139 1.3532.5909 1.884 1.0898l2.7397-2.91446c-.9718-.91348-2.1546-1.60921-3.4703-2.00542zm3.8293-2.56932-.9543.55099 2 3.46413.9543-.551zm4.4863 2.77042-1.0712-1.85536-3.4641 1.99996 1.0712 1.8554zm-1.868 3.9652.9529-.5501-2-3.4641-.9529.5501zm-3.1878-.6978c.0815.3484.1251.7133.1251 1.091h4c0-.6868-.0794-1.3575-.2304-2.0026zm.1251 1.091c0 .3777-.0436.7426-.1251 1.091l3.8947.9116c.151-.6451.2304-1.3158.2304-2.0026zm4.0156.9434-.9529-.5502-2 3.4641.9529.5502zm-.1561 5.2704 1.0712-1.8554-3.4641-2-1.0712 1.8554zm-4.3695.364.9544.5511 2-3.4641-.9544-.5511zm-.9909-3.1081c-.5308.4989-1.1736.8758-1.884 1.0898l1.1534 3.8301c1.3156-.3962 2.4985-1.092 3.4702-2.0054zm.3114 4.6025v-1.1h-4v1.1zm-4.6424 2.5h2.1424v-4h-2.1424zm-2.5-3.6v1.1h4v-1.1zm2.1953-2.4127c-.7103-.214-1.3531-.5909-1.8839-1.0898l-2.73966 2.9145c.97175.9135 2.15456 1.6092 3.47016 2.0054zm-3.82932 2.5694.95442-.551-1.99999-3.4641-.95443.551zm-4.48626-2.7704 1.0712 1.8554 3.4641-2-1.0712-1.8554zm1.86797-3.9652-.9529.5501 2 3.4641.9529-.5501zm3.18781.6977c-.08152-.3484-.1251-.7133-.1251-1.091h-4c0 .6868.07941 1.3576.23041 2.0027zm-.1251-1.091c0-.3777.04358-.7426.1251-1.091l-3.8947-.9116c-.151.6451-.2304 1.3158-.2304 2.0026zm-4.0156-.9434.95288.5502 2-3.4641-.95288-.5502zm.15613-5.27041-1.07119 1.85541 3.4641 2 1.07119-1.8554zm4.36947-.36405-.9544-.55101-2 3.46407.95438.551zm.991 3.10816c.5307-.4989 1.1735-.8759 1.8839-1.0898l-1.1534-3.83009c-1.3156.39621-2.49844 1.09193-3.4702 2.0054zm-.3114-4.60254v1.10002h4v-1.10002zm2.1953 3.51274c.9994-.30095 1.8047-1.23036 1.8047-2.41272h-4c0-.71926.486-1.24995 1.0419-1.41737zm-5.4005.152c.71744.4142.96325 1.3316.54904 2.0491l-3.4641-2c-.69036 1.1957-.28067 2.7247.91506 3.415zm2.1407 3.3165c.2377-1.0155-.16506-2.1758-1.18782-2.7663l-2 3.4641c-.62211-.3592-.83912-1.0445-.70688-1.6094zm-1.18781 4.9484c1.02277-.5905 1.42551-1.7509 1.18781-2.7664l-3.89469.9117c-.13224-.565.08477-1.2503.70688-1.6094zm-.40387-1.4989c.41422.7174.1684 1.6348-.54903 2.049l-2-3.4641c-1.19573.6904-1.60542 2.2194-.91507 3.4151zm-.97784 1.3063c.71744-.4142 1.63483-.1684 2.04904.5491l-3.4641 2c.69036 1.1957 2.21933 1.6054 3.41506.915zm3.94542-.1951c-.761-.7154-1.96829-.9464-2.99099-.3559l1.99999 3.4641c-.62198.3591-1.32477.2048-1.74866-.1937zm3.6886 3.5025c0-1.1824-.8053-2.1118-1.8047-2.4127l-1.1534 3.8301c-.5559-.1674-1.0419-.6981-1.0419-1.4174zm-1.5-.4c.8284 0 1.5.6716 1.5 1.5h-4c0 1.3808 1.1193 2.5 2.5 2.5zm.6424 1.5c0-.8284.6715-1.5 1.5-1.5v4c1.3807 0 2.5-1.1192 2.5-2.5zm1.8046-3.5127c-.9993.3009-1.8046 1.2303-1.8046 2.4127h4c0 .7193-.4861 1.25-1.042 1.4174zm3.7803-.3457c.4142-.7174 1.3316-.9633 2.049-.549l-2 3.4641c1.1958.6903 2.7247.2806 3.4151-.9151zm1.6202.1937c-.7174-.4142-.9632-1.3316-.549-2.0491l3.4641 2c.6904-1.1957.2807-2.7247-.9151-3.415zm-2.1407-3.3165c-.2377 1.0154.1651 2.1758 1.1878 2.7663l2-3.4641c.6222.3592.8392 1.0445.7069 1.6094zm1.1878-4.9483c-1.0227.5905-1.4255 1.7509-1.1878 2.7663l3.8947-.9116c.1323.565-.0847 1.2502-.7069 1.6094zm.4039 1.4989c-.4142-.7174-.1684-1.6348.549-2.049l2 3.4641c1.1957-.6904 1.6054-2.2194.9151-3.4151zm.9778-1.3063c-.7174.4142-1.6348.1684-2.049-.5491l3.4641-1.99996c-.6904-1.19573-2.2193-1.60542-3.4151-.91506zm-3.9453.195c.761.7154 1.9683.9464 2.991.356l-2-3.46413c.622-.35911 1.3248-.2048 1.7487.19367zm-3.6886-3.50251c0 1.18235.8053 2.11175 1.8046 2.41271l1.1534-3.83008c.5559.16741 1.042.6981 1.042 1.41737zm-5.82202 3.85841c1.02271.5905 2.22992.3595 2.99102-.3559l-2.7397-2.91449c.42389-.39847 1.12668-.55278 1.7487-.19367zm5.17962-7.45844c-1.3807 0-2.5 1.11929-2.5 2.5h4c0 .82842-.6716 1.5-1.5 1.5zm7.3219 13.68594c-1.0227-.5904-2.2299-.3594-2.9909.356l2.7396 2.9145c-.4239.3984-1.1267.5528-1.7487.1936zm-11.40687-7.3275c-.41421.7174-1.33159.9632-2.04903.549l2-3.46407c-1.19573-.69036-2.72471-.28067-3.41507.91506zm6.22737-2.35844c-.8285 0-1.5-.67157-1.5-1.5h4c0-1.38071-1.1193-2.5-2.5-2.5z" fill="#fff" mask="url(#a)"/><circle cx="14.8674" cy="14.5158" r="3.85763" stroke="#fff" stroke-width="2"/></svg>