<svg width="67" height="48" viewBox="0 0 67 48" fill="none" xmlns="http://www.w3.org/2000/svg">
<rect width="67" height="47.8571" rx="1" fill="white"/>
<path d="M3.19049 41.7538H3.49052L3.49045 41.7492L3.19049 41.7538ZM63.8086 39.9232H63.5086L63.5087 39.9259L63.8086 39.9232ZM63.2411 42.6402L63.371 42.9106L63.2411 42.6402ZM4.68829 42.7812L4.63724 43.0769L4.68829 42.7812ZM3.75756 42.64L3.62756 42.9104L3.75756 42.64ZM62.3119 42.7811L62.363 43.0768L62.3119 42.7811ZM3.49037 4.19067C3.49037 3.80407 3.80377 3.49067 4.19037 3.49067V2.89067C3.4724 2.89067 2.89037 3.4727 2.89037 4.19067H3.49037ZM3.49037 41.7383V4.19067H2.89037V41.7383H3.49037ZM3.49045 41.7492C3.4904 41.7456 3.49037 41.7419 3.49037 41.7383H2.89037C2.89037 41.745 2.89042 41.7517 2.89052 41.7583L3.49045 41.7492ZM3.49049 42.0922L3.49049 41.7538H2.89049L2.89049 42.0922H3.49049ZM4.19037 42.4383C4.08129 42.4383 3.97884 42.4136 3.88756 42.3697L3.62756 42.9104C3.79822 42.9925 3.98936 43.0383 4.19037 43.0383V42.4383ZM33.4998 44.3671C21.7728 44.3671 11.3558 43.6283 4.73935 42.4856L4.63724 43.0769C11.3006 44.2277 21.7552 44.9671 33.4998 44.9671V44.3671ZM62.2608 42.4855C55.6444 43.6283 45.2272 44.3671 33.4998 44.3671V44.9671C45.2447 44.9671 55.6996 44.2276 62.363 43.0768L62.2608 42.4855ZM63.1112 42.3698C63.02 42.4136 62.9176 42.4383 62.8086 42.4383V43.0383C63.0095 43.0383 63.2005 42.9925 63.371 42.9106L63.1112 42.3698ZM63.5088 39.9501V42.0917H64.1088V39.9501H63.5088ZM63.5087 39.9259C63.5087 39.9339 63.5088 39.942 63.5088 39.9501H64.1088C64.1088 39.9403 64.1087 39.9304 64.1086 39.9205L63.5087 39.9259ZM63.5086 4.19067V39.9232H64.1086V4.19067H63.5086ZM62.8086 3.49067C63.1952 3.49067 63.5086 3.80407 63.5086 4.19067H64.1086C64.1086 3.4727 63.5266 2.89067 62.8086 2.89067V3.49067ZM4.19037 3.49067H62.8086V2.89067H4.19037V3.49067ZM63.4632 42.8763C63.8415 42.8036 64.1088 42.4723 64.1088 42.0917H63.5088C63.5088 42.1892 63.4412 42.2696 63.3499 42.2871L63.4632 42.8763ZM63.371 42.9106C63.4129 42.8905 63.4421 42.8804 63.4632 42.8763L63.3499 42.2871C63.2565 42.3051 63.1746 42.3393 63.1112 42.3698L63.371 42.9106ZM4.19037 43.0383C4.34071 43.0383 4.48847 43.0512 4.63724 43.0769L4.73935 42.4856C4.55747 42.4542 4.37556 42.4383 4.19037 42.4383V43.0383ZM3.53553 42.8762C3.55665 42.8802 3.58578 42.8903 3.62756 42.9104L3.88756 42.3697C3.82423 42.3392 3.74224 42.3049 3.64882 42.287L3.53553 42.8762ZM62.363 43.0768C62.5113 43.0511 62.6587 43.0383 62.8086 43.0383V42.4383C62.6238 42.4383 62.4423 42.4542 62.2608 42.4855L62.363 43.0768ZM2.89049 42.0922C2.89049 42.4724 3.15756 42.8035 3.53553 42.8762L3.64882 42.287C3.55789 42.2695 3.49049 42.1894 3.49049 42.0922H2.89049Z" fill="black"/>
<rect x="7.97662" y="7.97607" width="51.0476" height="28.7143" rx="0.6" fill="#141414"/>
</svg>
