<svg width="24" height="24" viewBox="0 0 24 24" fill="none" xmlns="http://www.w3.org/2000/svg">
<path fill-rule="evenodd" clip-rule="evenodd" d="M12.0782 10.0523C12.0782 10.0523 12.0141 6.93476 13.0957 5.85309C14.1774 4.77142 16.2133 5.53501 17.5498 6.87151C18.8854 8.20709 19.9671 10.4346 19.2035 11.1982C18.3767 12.025 16.9769 11.134 16.0859 11.134C15.1949 11.134 13.7952 11.7702 13.7952 11.7702L12.0782 10.0523Z" fill="#808080"/>
<path fill-rule="evenodd" clip-rule="evenodd" d="M11.9217 13.9476C11.9217 13.9476 11.9858 17.0652 10.9042 18.1468C9.8225 19.2285 7.78658 18.4649 6.45008 17.1284C5.1145 15.7928 4.03375 13.5653 4.79641 12.8017C5.62325 11.9758 7.023 12.8659 7.914 12.8659C8.805 12.8659 10.2047 12.2297 10.2047 12.2297L11.9217 13.9476Z" fill="#808080"/>
<path fill-rule="evenodd" clip-rule="evenodd" d="M13.9474 12.0781C13.9474 12.0781 17.065 12.0148 18.1466 13.0956C19.2283 14.1773 18.4647 16.2132 17.1291 17.5497C15.7926 18.8853 13.5661 19.9669 12.8025 19.2033C11.9756 18.3765 12.8657 16.9768 12.8657 16.0867C12.8657 15.1957 12.2296 13.7959 12.2296 13.7959L13.9474 12.0781Z" fill="#808080"/>
<path fill-rule="evenodd" clip-rule="evenodd" d="M10.0525 11.9221C10.0525 11.9221 6.93491 11.9854 5.85324 10.9037C4.77158 9.82206 5.53516 7.78614 6.87074 6.45056C8.20724 5.11406 10.4338 4.03331 11.1974 4.79598C12.0242 5.62281 11.1342 7.02256 11.1342 7.91356C11.1342 8.80456 11.7703 10.2043 11.7703 10.2043L10.0525 11.9221Z" fill="#808080"/>
<path fill-rule="evenodd" clip-rule="evenodd" d="M14.8408 12.0002C14.8408 13.5686 13.5685 14.8409 12.0001 14.8409C10.4307 14.8409 9.1593 13.5686 9.1593 12.0002C9.1593 10.4308 10.4307 9.15942 12.0001 9.15942C13.5685 9.15942 14.8408 10.4308 14.8408 12.0002Z" fill="#202020"/>
<path fill-rule="evenodd" clip-rule="evenodd" d="M13.7049 12.0002C13.7049 12.9416 12.9413 13.7043 12.0008 13.7043C11.0584 13.7043 10.2949 12.9416 10.2949 12.0002C10.2949 11.0588 11.0584 10.2961 12.0008 10.2961C12.9413 10.2961 13.7049 11.0588 13.7049 12.0002Z" fill="#808080"/>
<path fill-rule="evenodd" clip-rule="evenodd" d="M22.5421 12.0002C22.5421 17.8219 17.8222 22.5418 12.0004 22.5418C6.17774 22.5418 1.45874 17.8219 1.45874 12.0002C1.45874 6.1775 6.17774 1.4585 12.0004 1.4585C17.8222 1.4585 22.5421 6.1775 22.5421 12.0002Z" stroke="#808080"/>
</svg>
