<svg width="20" height="20" viewBox="0 0 20 20" fill="none" xmlns="http://www.w3.org/2000/svg">
<path d="M13.7798 11.7622C13.5661 10.8221 13.1341 9.83456 12.4838 8.79476C11.7906 7.68374 10.8412 6.511 9.64011 5.26704C9.15588 4.77326 8.63843 4.26998 8.07824 3.7572C7.99754 3.68598 7.90259 3.63375 7.79341 3.59102C7.68896 3.54829 7.57978 3.5293 7.47059 3.5293C7.3614 3.5293 7.25696 3.54829 7.14777 3.59102C7.03858 3.63375 6.94364 3.68598 6.86293 3.7572C4.89754 5.56141 3.42588 7.24218 2.45743 8.79476C1.48423 10.3473 1 11.786 1 13.1154C1 15.2282 1.65038 16.9042 2.95115 18.1434C4.25191 19.3779 5.76156 19.9999 7.47059 19.9999C9.17962 19.9999 10.6893 19.3779 11.99 18.1434C13.2908 16.9042 13.9412 15.2282 13.9412 13.1154C13.9412 12.6786 13.889 12.2228 13.7798 11.7622ZM11.8524 15.2852C11.6815 15.6033 11.3539 15.7837 11.0168 15.7837C10.8649 15.7837 10.713 15.7457 10.5658 15.6698C10.1053 15.4181 9.93444 14.8436 10.1813 14.3831C10.4234 13.9415 10.6038 13.5142 10.4234 12.7213C10.1908 11.71 9.20811 10.4233 8.84731 10.015C8.5055 9.6209 8.54348 9.02266 8.93751 8.67606C9.07993 8.55261 9.25083 8.47665 9.42648 8.45291C9.73506 8.40543 10.0579 8.50988 10.2763 8.76152C10.4092 8.91346 11.4156 10.0814 11.9805 11.4156C12.104 11.7052 12.2084 11.9996 12.2749 12.2987C12.5882 13.6661 12.2369 14.573 11.8524 15.2852Z" fill="#808080"/>
<path d="M19.2353 6.16164C19.2353 7.52299 18.8033 8.5996 17.9347 9.40039C17.0892 10.1789 16.1149 10.5749 15.0074 10.5882C14.8006 9.71181 14.3824 8.78646 13.7528 7.80771C13.0818 6.77113 12.1627 5.67227 11 4.50667C11.1517 4.14632 11.3539 3.76817 11.602 3.38112C12.2454 2.38458 13.2243 1.30796 14.5294 0.146812C14.5846 0.0978744 14.6489 0.0667326 14.7178 0.0400395C14.7914 0.0133465 14.8603 0 14.9338 0C15.0074 0 15.0809 0.0133465 15.1498 0.0400395C15.2188 0.0667326 15.2831 0.0978744 15.3382 0.146812C16.6434 1.30796 17.6222 2.38458 18.2656 3.38112C18.9136 4.38211 19.2353 5.31191 19.2353 6.16164Z" fill="#808080"/>
</svg>
