<svg width="18" height="18" viewBox="0 0 18 18" fill="none" xmlns="http://www.w3.org/2000/svg">
<path d="M9 0C4.05 0 0 4.05 0 9C0 13.95 4.05 18 9 18C13.95 18 18 13.95 18 9C18 4.05 13.95 0 9 0ZM9 16.3125C4.95 16.3125 1.6875 13.05 1.6875 9C1.6875 4.95 4.95 1.6875 9 1.6875C13.05 1.6875 16.3125 4.95 16.3125 9C16.3125 13.05 13.05 16.3125 9 16.3125Z" fill="white"/>
<path d="M10.125 7.875H7.875V13.5H10.125V7.875Z" fill="white"/>
<path d="M9 6.75C9.62132 6.75 10.125 6.24632 10.125 5.625C10.125 5.00368 9.62132 4.5 9 4.5C8.37868 4.5 7.875 5.00368 7.875 5.625C7.875 6.24632 8.37868 6.75 9 6.75Z" fill="white"/>
</svg>
