<svg width="19" height="20" viewBox="0 0 19 20" fill="none" xmlns="http://www.w3.org/2000/svg">
<path d="M18.75 1.875H0" stroke="#949494"/>
<path fill-rule="evenodd" clip-rule="evenodd" d="M4.375 3.75C3.34 3.75 2.5 2.911 2.5 1.875C2.5 0.839 3.34 0 4.375 0C5.411 0 6.25 0.839 6.25 1.875C6.25 2.911 5.411 3.75 4.375 3.75Z" fill="#949494"/>
<path d="M18.75 10H0" stroke="#949494"/>
<path fill-rule="evenodd" clip-rule="evenodd" d="M9.375 11.875C8.34 11.875 7.5 11.036 7.5 10C7.5 8.964 8.34 8.125 9.375 8.125C10.411 8.125 11.25 8.964 11.25 10C11.25 11.036 10.411 11.875 9.375 11.875Z" fill="#949494"/>
<path d="M0 18.125H18.75" stroke="#949494"/>
<path fill-rule="evenodd" clip-rule="evenodd" d="M14.375 16.25C15.411 16.25 16.25 17.089 16.25 18.125C16.25 19.161 15.411 20 14.375 20C13.34 20 12.5 19.161 12.5 18.125C12.5 17.089 13.34 16.25 14.375 16.25Z" fill="#949494"/>
</svg>
