<svg width="19" height="20" viewBox="0 0 19 20" fill="none" xmlns="http://www.w3.org/2000/svg">
<path fill-rule="evenodd" clip-rule="evenodd" d="M9.79927 12.3195C9.30327 12.3195 8.90027 11.9165 8.90027 11.4215V1.89849C8.90027 1.40349 9.30327 1.00049 9.79927 1.00049C10.2953 1.00049 10.6983 1.40349 10.6983 1.89849V11.4215C10.6983 11.9165 10.2953 12.3195 9.79927 12.3195" fill="#E93D3D"/>
<path d="M9.79927 12.3195C9.30327 12.3195 8.90027 11.9165 8.90027 11.4215V1.89849C8.90027 1.40349 9.30327 1.00049 9.79927 1.00049C10.2953 1.00049 10.6983 1.40349 10.6983 1.89849V11.4215C10.6983 11.9165 10.2953 12.3195 9.79927 12.3195" stroke="#E93D3D" stroke-width="0.5"/>
<path fill-rule="evenodd" clip-rule="evenodd" d="M8.78397 19.361C4.92297 18.931 1.69397 15.843 1.10697 12.018C0.630968 8.92104 1.76197 5.88104 4.13297 3.88504C4.29197 3.75104 4.48097 3.68004 4.68097 3.68004C5.08797 3.68004 5.50797 3.98604 5.50797 4.50004C5.50797 4.74204 5.39197 4.98004 5.18897 5.14904C3.16897 6.85104 2.26997 9.43304 2.78597 12.056C3.37397 15.051 5.91897 17.383 8.97497 17.727C9.25197 17.758 9.52797 17.773 9.79997 17.773C13.744 17.773 16.954 14.564 16.954 10.618C16.954 8.50504 16.027 6.51204 14.41 5.15004C14.206 4.98004 14.09 4.74204 14.09 4.50004C14.09 3.98404 14.523 3.66504 14.925 3.66504C15.105 3.66504 15.277 3.72904 15.42 3.84704C17.44 5.52504 18.599 7.99304 18.599 10.618C18.599 15.471 14.651 19.419 9.79897 19.419C9.46497 19.419 9.12597 19.4 8.78397 19.361Z" fill="#E93D3D" stroke="#E93D3D" stroke-width="0.5"/>
</svg>
