<svg width="31" height="31" viewBox="0 0 31 31" fill="none" xmlns="http://www.w3.org/2000/svg">
<g clip-path="url(#clip0_6918_3888)">
<path fill-rule="evenodd" clip-rule="evenodd" d="M5.98291 3.17969H5.48291V3.67969V26.6797V27.1797H5.98291H13.2998C13.1193 26.8566 12.9556 26.5228 12.8097 26.1797H6.48291V6.42969H25.4829V12.141C25.824 12.2462 26.1577 12.3684 26.4829 12.5067V3.67969V3.17969H25.9829H5.98291ZM24.1277 11.821V7.67969V7.42969H23.8777H8.0882H7.8382V7.67969V15.6797V15.9297H8.0882H14.0072C14.1329 15.759 14.2636 15.5922 14.3992 15.4297H8.3382V7.92969H23.6277V11.7504C23.7956 11.77 23.9623 11.7936 24.1277 11.821ZM13.087 17.4297H8.0882H7.8382V17.6797V24.6797V24.9297H8.0882H12.3704C12.324 24.7646 12.2816 24.5979 12.2433 24.4297H8.3382V17.9297H12.8522C12.9262 17.7606 13.0045 17.5939 13.087 17.4297ZM25.4829 5.92969H6.48291V4.17969H25.4829V5.92969ZM14.404 5.64619H17.5619V4.71319H14.404V5.64619Z" fill="#929292"/>
<path fill-rule="evenodd" clip-rule="evenodd" d="M22.83 16.8242H21.221L21.468 23.6662H22.583L22.83 16.8242ZM22.931 25.7382C22.931 25.2452 22.511 24.8402 22.018 24.8402C21.525 24.8402 21.134 25.2452 21.134 25.7382C21.134 26.2172 21.525 26.6372 22.018 26.6372C22.511 26.6372 22.931 26.2172 22.931 25.7382Z" fill="#929292"/>
<path fill-rule="evenodd" clip-rule="evenodd" d="M30.0829 21.7297C30.0829 26.1757 26.4789 29.7797 22.0329 29.7797C17.5869 29.7797 13.9829 26.1757 13.9829 21.7297C13.9829 17.2847 17.5869 13.6797 22.0329 13.6797C26.4789 13.6797 30.0829 17.2847 30.0829 21.7297Z" stroke="#929292"/>
</g>
<defs>
<clipPath id="clip0_6918_3888">
<rect width="30" height="30" fill="white" transform="translate(0.98291 0.679688)"/>
</clipPath>
</defs>
</svg>
