<svg width="31" height="31" viewBox="0 0 31 31" fill="none" xmlns="http://www.w3.org/2000/svg">
<path fill-rule="evenodd" clip-rule="evenodd" d="M27.9829 21.1797C27.9829 25.3219 24.6251 28.6797 20.4829 28.6797C16.3407 28.6797 12.9829 25.3219 12.9829 21.1797C12.9829 17.0384 16.3407 13.6797 20.4829 13.6797C24.6251 13.6797 27.9829 17.0384 27.9829 21.1797Z" stroke="#929292"/>
<path d="M18.7444 23.0522C19.4164 22.4712 19.9449 21.9952 20.3299 21.6242C20.7219 21.2462 21.0474 20.8542 21.3064 20.4482C21.5654 20.0422 21.6949 19.6362 21.6949 19.2302C21.6949 18.8102 21.5934 18.4812 21.3904 18.2432C21.1944 18.0052 20.8829 17.8862 20.4559 17.8862C20.0429 17.8862 19.7209 18.0192 19.4899 18.2852C19.2659 18.5442 19.1469 18.8942 19.1329 19.3352H17.9779C17.9989 18.5372 18.2369 17.9282 18.6919 17.5082C19.1539 17.0812 19.7384 16.8677 20.4454 16.8677C21.2084 16.8677 21.8034 17.0777 22.2304 17.4977C22.6644 17.9177 22.8814 18.4777 22.8814 19.1777C22.8814 19.6817 22.7519 20.1682 22.4929 20.6372C22.2409 21.0992 21.9364 21.5157 21.5794 21.8867C21.2294 22.2507 20.7814 22.6742 20.2354 23.1572L19.7629 23.5772H23.0914V24.5747H17.9884V23.7032L18.7444 23.0522Z" fill="#929292"/>
<path fill-rule="evenodd" clip-rule="evenodd" d="M14.9829 8.17969C14.9829 11.2173 12.5205 13.6797 9.48291 13.6797C6.44527 13.6797 3.98291 11.2173 3.98291 8.17969C3.98291 5.14273 6.44527 2.67969 9.48291 2.67969C12.5205 2.67969 14.9829 5.14273 14.9829 8.17969Z" stroke="#929292"/>
<path d="M8.46156 6.17969V5.34769H10.1256V11.1797H9.20556V6.17969H8.46156Z" fill="#929292"/>
</svg>
