<svg width="30" height="30" viewBox="0 0 30 30" fill="none" xmlns="http://www.w3.org/2000/svg">
<path fill-rule="evenodd" clip-rule="evenodd" d="M11.1358 24.1143H8.88989V24.2753C8.88989 25.7793 10.1099 26.9993 11.6139 26.9993C12.2687 26.9993 12.8695 26.7683 13.3394 26.3835C12.4418 25.7208 11.6944 24.9552 11.1358 24.1143Z" fill="#929292"/>
<path d="M12.6963 19.2709C12.6963 15.2109 15.9873 11.9189 20.0473 11.9189C24.1073 11.9189 27.3993 15.2109 27.3993 19.2709C27.3993 23.3319 24.1073 26.6229 20.0473 26.6229C18.2343 26.6229 16.5733 25.9649 15.2913 24.8759" stroke="#929292"/>
<path d="M20.0474 14.2168V19.2708L22.3444 21.5678" stroke="#929292"/>
<path fill-rule="evenodd" clip-rule="evenodd" d="M12.6964 22.3524L15.3974 19.1104H9.99438L12.6964 22.3524Z" fill="#929292"/>
<path fill-rule="evenodd" clip-rule="evenodd" d="M11.4262 2.51209C12.2971 2.40157 13.039 3.07705 13.039 3.9231V4.8201V5.20335L13.4091 5.30293C15.7622 5.93601 17.6164 7.79133 18.2509 10.1449C18.5798 10.0898 18.9143 10.05 19.2534 10.0262C18.5952 7.38756 16.6045 5.27515 14.039 4.44674V3.9231C14.039 2.48121 12.775 1.33273 11.3 1.52008L11.2995 1.52014C10.0581 1.67901 9.192 2.78329 9.192 3.9891V4.4466C6.02816 5.46697 3.744 8.43582 3.744 11.9361V18.139L1.83445 20.0485C1.62128 20.2617 1.5 20.5516 1.5 20.8551V21.8721V22.3721H2H10.4651C10.3564 22.046 10.2657 21.7123 10.1941 21.3721H2.5V20.8551C2.5 20.8185 2.51472 20.7825 2.54155 20.7557L4.59755 18.6997L4.744 18.5532V18.3461V11.9361C4.744 8.7635 6.89408 6.08965 9.82175 5.30297L10.192 5.20348V4.8201V3.9891C10.192 3.239 10.7298 2.60135 11.4262 2.51209Z" fill="#929292"/>
</svg>
