<svg width="31" height="31" viewBox="0 0 31 31" fill="none" xmlns="http://www.w3.org/2000/svg">
<path d="M16.2735 4.82685C16.4064 4.76558 16.5594 4.76558 16.6923 4.82685L25.1923 8.74665C25.3704 8.8288 25.4829 9.00479 25.4829 9.19879V9.20326V9.20775V9.21226V9.21679V9.22135V9.22592V9.23051V9.23512V9.23976V9.24441V9.24909V9.25378V9.2585V9.26324V9.268V9.27278V9.27758V9.2824V9.28724V9.2921V9.29699V9.3019V9.30682V9.31177V9.31674V9.32173V9.32675V9.33178V9.33683V9.34191V9.34701V9.35213V9.35727V9.36244V9.36762V9.37283V9.37806V9.38331V9.38858V9.39388V9.3992V9.40454V9.4099V9.41528V9.42069V9.42611V9.43156V9.43704V9.44253V9.44805V9.45359V9.45915V9.46474V9.47035V9.47598V9.48163V9.48731V9.493V9.49873V9.50447V9.51024V9.51603V9.52184V9.52768V9.53354V9.53942V9.54533V9.55125V9.55721V9.56318V9.56918V9.5752V9.58125V9.58732V9.59341V9.59953V9.60567V9.61183V9.61802V9.62423V9.63047V9.63673V9.64301V9.64932V9.65565V9.662V9.66838V9.67479V9.68121V9.68766V9.69414V9.70064V9.70716V9.71371V9.72029V9.72688V9.73351V9.74015V9.74683V9.75352V9.76024V9.76699V9.77376V9.78055V9.78737V9.79422V9.80109V9.80799V9.81491V9.82185V9.82882V9.83582V9.84284V9.84988V9.85696V9.86405V9.87117V9.87832V9.8855V9.89269V9.89992V9.90717V9.91444V9.92175V9.92907V9.93643V9.94381V9.95121V9.95864V9.9661V9.97358V9.98109V9.98862V9.99619V10.0038V10.0114V10.019V10.0267V10.0344V10.0421V10.0498V10.0576V10.0654V10.0732V10.0811V10.089V10.0969V10.1048V10.1128V10.1208V10.1288V10.1368V10.1449V10.153V10.1611V10.1692V10.1774V10.1856V10.1939V10.2021V10.2104V10.2187V10.227V10.2354V10.2438V10.2522V10.2607V10.2692V10.2777V10.2862V10.2948V10.3033V10.312V10.3206V10.3293V10.338V10.3467V10.3555V10.3642V10.3731V10.3819V10.3908V10.3997V10.4086V10.4175V10.4265V10.4355V10.4446V10.4537V10.4628V10.4719V10.481V10.4902V10.4994V10.5087V10.5179V10.5272V10.5366V10.5459V10.5553V10.5647V10.5742V10.5837V10.5932V10.6027V10.6122V10.6218V10.6315V10.6411V10.6508V10.6605V10.6702V10.68V10.6898V10.6996V10.7095V10.7194V10.7293V10.7393V10.7492V10.7592V10.7693V10.7793V10.7894V10.7996V10.8097V10.8199V10.8301V10.8404V10.8507V10.861V10.8713V10.8817V10.8921V10.9025V10.913V10.9235V10.934V10.9446V10.9552V10.9658V10.9764V10.9871V10.9978V11.0086V11.0193V11.0301V11.041V11.0518V11.0627V11.0737V11.0846V11.0956V11.1066V11.1177V11.1288V11.1399V11.1511V11.1622V11.1735V11.1847V11.196V11.2073V11.2186V11.23V11.2414V11.2529V11.2643V11.2758V11.2874V11.2989V11.3105V11.3222V11.3338V11.3455V11.3572V11.369V11.3808V11.3926V11.4045V11.4164V11.4283V11.4403V11.4522V11.4643V11.4763V11.4884V11.5005V11.5127V11.5249V11.5371V11.5494V11.5616V11.574V11.5863V11.5987V11.6111V11.6236V11.6361V11.6486V11.6611V11.6737V11.6864V11.699V11.7117V11.7244V11.7372V11.75V11.7628V11.7757V11.7886V11.8015V11.8144V11.8274V11.8405V11.8535V11.8666V11.8798V11.8929V11.9061V11.9194V11.9326V11.9459V11.9593V11.9727V11.9861V11.9995V12.013V12.0265V12.0401V12.0536V12.0673V12.0809V12.0946V12.1083V12.1221V12.1359V12.1497V12.1636V12.1775V12.1914V12.2054V12.2194V12.2334V12.2475V12.2616V12.2758V12.2899V12.3042V12.3184V12.3327V12.347V12.3614V12.3758V12.3902V12.4047V12.4192V12.4337V12.4483V12.4629V12.4776V12.4923V12.507V12.5218V12.5366V12.5514V12.5663V12.5812V12.5961V12.6111V12.6261V12.6412V12.6563V12.6714V12.6866V12.7018V12.717V12.7323V12.7476V12.7629V12.7783V12.7937V12.8092V12.8247V12.8402V12.8558V12.8714V12.8871V12.9027V12.9185V12.9342V12.95V12.9659V12.9817V12.9976V13.0136V13.0296V13.0456V13.0617V13.0778V13.0939V13.1101V13.1263V13.1425V13.1588V13.1752V13.1915V13.2079V13.2244V13.2409V13.2574V13.2739V13.2905V13.3072V13.3239V13.3406V13.3573V13.3741V13.3909V13.4078V13.4247V13.4417V13.4587V13.4757V13.4927V13.5099V13.527V13.5442V13.5614V13.5787V13.596V13.6133V13.6307V13.6481V13.6656V13.6831V13.7006V13.7182V13.7358V13.7534V13.7711V13.7889V13.8066V13.8245V13.8423V13.8602V13.8781V13.8961V13.9141V13.9322V13.9503V13.9684V13.9866V14.0048V14.0231V14.0414V14.0597V14.0781V14.0965V14.115V14.1335V14.152V14.1706V14.1892V14.2079V14.2266V14.2453V14.2641V14.283V14.3018V14.3207V14.3397V14.3587V14.3777V14.3968V14.4159V14.4351V14.4543V14.4735V14.4928V14.5121V14.5315V14.5509V14.5704V14.5898V14.6094V14.629V14.6486V14.6682V14.6879V14.7077V14.7275V14.7473V14.7672V14.7871V14.807V14.827V14.8471V14.8671V14.8873V14.9074V14.9276V14.9479V14.9682V14.9885V15.0089V15.0293V15.0498V15.0703V15.0908V15.1114V15.1321C25.4829 20.8759 21.7193 25.2332 16.5966 26.6328L16.7283 27.1151L16.5966 26.6328C16.5224 26.653 16.4434 26.653 16.3693 26.6328C11.2465 25.2332 7.48291 20.8759 7.48291 15.1321V15.1114V15.0908V15.0703V15.0498V15.0293V15.0089V14.9885V14.9682V14.9479V14.9276V14.9074V14.8873V14.8671V14.8471V14.827V14.807V14.7871V14.7672V14.7473V14.7275V14.7077V14.6879V14.6682V14.6486V14.629V14.6094V14.5898V14.5704V14.5509V14.5315V14.5121V14.4928V14.4735V14.4543V14.4351V14.4159V14.3968V14.3777V14.3587V14.3397V14.3207V14.3018V14.283V14.2641V14.2454V14.2266V14.2079V14.1892V14.1706V14.152V14.1335V14.115V14.0965V14.0781V14.0597V14.0414V14.0231V14.0048V13.9866V13.9684V13.9503V13.9322V13.9141V13.8961V13.8781V13.8602V13.8423V13.8245V13.8066V13.7889V13.7711V13.7534V13.7358V13.7182V13.7006V13.6831V13.6656V13.6481V13.6307V13.6133V13.596V13.5787V13.5614V13.5442V13.527V13.5099V13.4927V13.4757V13.4587V13.4417V13.4247V13.4078V13.3909V13.3741V13.3573V13.3406V13.3239V13.3072V13.2905V13.2739V13.2574V13.2409V13.2244V13.2079V13.1915V13.1752V13.1588V13.1425V13.1263V13.1101V13.0939V13.0778V13.0617V13.0456V13.0296V13.0136V12.9976V12.9817V12.9659V12.95V12.9342V12.9185V12.9027V12.8871V12.8714V12.8558V12.8402V12.8247V12.8092V12.7937V12.7783V12.7629V12.7476V12.7323V12.717V12.7018V12.6866V12.6714V12.6563V12.6412V12.6261V12.6111V12.5961V12.5812V12.5663V12.5514V12.5366V12.5218V12.507V12.4923V12.4776V12.4629V12.4483V12.4337V12.4192V12.4047V12.3902V12.3758V12.3614V12.347V12.3327V12.3184V12.3042V12.2899V12.2758V12.2616V12.2475V12.2334V12.2194V12.2054V12.1914V12.1775V12.1636V12.1497V12.1359V12.1221V12.1083V12.0946V12.0809V12.0673V12.0536V12.0401V12.0265V12.013V11.9995V11.9861V11.9727V11.9593V11.9459V11.9326V11.9194V11.9061V11.8929V11.8798V11.8666V11.8535V11.8405V11.8274V11.8144V11.8015V11.7886V11.7757V11.7628V11.75V11.7372V11.7244V11.7117V11.699V11.6864V11.6737V11.6611V11.6486V11.6361V11.6236V11.6111V11.5987V11.5863V11.574V11.5616V11.5494V11.5371V11.5249V11.5127V11.5005V11.4884V11.4763V11.4643V11.4522V11.4403V11.4283V11.4164V11.4045V11.3926V11.3808V11.369V11.3572V11.3455V11.3338V11.3222V11.3105V11.2989V11.2874V11.2758V11.2643V11.2529V11.2414V11.23V11.2186V11.2073V11.196V11.1847V11.1735V11.1622V11.1511V11.1399V11.1288V11.1177V11.1066V11.0956V11.0846V11.0737V11.0627V11.0518V11.041V11.0301V11.0193V11.0086V10.9978V10.9871V10.9764V10.9658V10.9552V10.9446V10.934V10.9235V10.913V10.9025V10.8921V10.8817V10.8713V10.861V10.8507V10.8404V10.8301V10.8199V10.8097V10.7996V10.7894V10.7793V10.7693V10.7592V10.7492V10.7393V10.7293V10.7194V10.7095V10.6996V10.6898V10.68V10.6702V10.6605V10.6508V10.6411V10.6315V10.6218V10.6122V10.6027V10.5932V10.5837V10.5742V10.5647V10.5553V10.5459V10.5366V10.5272V10.5179V10.5087V10.4994V10.4902V10.481V10.4719V10.4628V10.4537V10.4446V10.4355V10.4265V10.4176V10.4086V10.3997V10.3908V10.3819V10.3731V10.3642V10.3555V10.3467V10.338V10.3293V10.3206V10.312V10.3033V10.2948V10.2862V10.2777V10.2692V10.2607V10.2522V10.2438V10.2354V10.227V10.2187V10.2104V10.2021V10.1939V10.1856V10.1774V10.1692V10.1611V10.153V10.1449V10.1368V10.1288V10.1208V10.1128V10.1048V10.0969V10.089V10.0811V10.0732V10.0654V10.0576V10.0499V10.0421V10.0344V10.0267V10.019V10.0114V10.0038V9.99619V9.98863V9.98109V9.97358V9.9661V9.95864V9.95121V9.94381V9.93643V9.92907V9.92175V9.91445V9.90717V9.89992V9.89269V9.8855V9.87832V9.87118V9.86405V9.85696V9.84988V9.84284V9.83582V9.82882V9.82185V9.81491V9.80799V9.80109V9.79422V9.78738V9.78056V9.77376V9.76699V9.76024V9.75352V9.74683V9.74016V9.73351V9.72689V9.72029V9.71371V9.70717V9.70064V9.69414V9.68766V9.68121V9.67479V9.66838V9.662V9.65565V9.64932V9.64301V9.63673V9.63047V9.62423V9.61802V9.61183V9.60567V9.59953V9.59341V9.58732V9.58125V9.5752V9.56918V9.56318V9.55721V9.55126V9.54533V9.53942V9.53354V9.52768V9.52184V9.51603V9.51024V9.50447V9.49873V9.493V9.48731V9.48163V9.47598V9.47035V9.46474V9.45915V9.45359V9.44805V9.44253V9.43704V9.43157V9.42612V9.42069V9.41528V9.4099V9.40454V9.3992V9.39388V9.38858V9.38331V9.37806V9.37283V9.36762V9.36244V9.35727V9.35213V9.34701V9.34191V9.33684V9.33178V9.32675V9.32173V9.31674V9.31177V9.30682V9.3019V9.29699V9.29211V9.28724V9.2824V9.27758V9.27278V9.268V9.26324V9.2585V9.25378V9.24909V9.24441V9.23976V9.23512V9.23051V9.22592V9.22135V9.21679V9.21226V9.20775V9.20326V9.19879C7.48291 9.00479 7.59538 8.8288 7.77353 8.74665L16.2735 4.82685Z" stroke="#929292"/>
<path d="M12.4829 15.6797L14.3776 18.1797L21.4829 12.1797" stroke="#929292" stroke-linecap="round"/>
</svg>
