<svg width="30" height="30" viewBox="0 0 30 30" fill="none" xmlns="http://www.w3.org/2000/svg">
<path fill-rule="evenodd" clip-rule="evenodd" d="M24.231 21.855V22.872H5V21.855C5 21.685 5.068 21.522 5.188 21.402L7.244 19.346V12.936C7.244 9.53199 9.551 6.66399 12.692 5.81999V4.98899C12.692 4.01099 13.394 3.13999 14.363 3.01599C15.536 2.86699 16.539 3.77899 16.539 4.92299V5.81999C19.676 6.66399 21.987 9.53199 21.987 12.936V19.346L24.043 21.402C24.164 21.522 24.231 21.685 24.231 21.855Z" stroke="#929292"/>
<path fill-rule="evenodd" clip-rule="evenodd" d="M14.6139 27.9993V27.9993C13.1099 27.9993 11.8899 26.7793 11.8899 25.2753V25.1143H17.3389V25.2753C17.3389 26.7793 16.1189 27.9993 14.6139 27.9993" fill="#929292"/>
<path fill-rule="evenodd" clip-rule="evenodd" d="M18.7959 19.0152V12.1402C18.7959 11.6582 18.0459 11.6572 18.0459 12.1402V19.0152C18.0459 19.4972 18.7959 19.4982 18.7959 19.0152" fill="#929292"/>
</svg>
