<svg width="13" height="25" viewBox="0 0 13 25" fill="none" xmlns="http://www.w3.org/2000/svg">
<path fill-rule="evenodd" clip-rule="evenodd" d="M11.3358 3.71162H12.9938V2.88262H11.3358V3.71162Z" fill="#949494"/>
<path fill-rule="evenodd" clip-rule="evenodd" d="M11.3358 6.47651H12.9938V5.64751H11.3358V6.47651Z" fill="#949494"/>
<path fill-rule="evenodd" clip-rule="evenodd" d="M11.3358 9.24166H12.9938V8.41166H11.3358V9.24166Z" fill="#949494"/>
<path fill-rule="evenodd" clip-rule="evenodd" d="M11.3358 12.0065H12.9938V11.1775H11.3358V12.0065Z" fill="#949494"/>
<path fill-rule="evenodd" clip-rule="evenodd" d="M9.9251 18.2661C9.9821 20.0581 8.5741 21.5561 6.7821 21.6121C4.9901 21.6681 3.4921 20.2611 3.4371 18.4691C3.3801 16.6771 4.7871 15.1791 6.5791 15.1231C8.3711 15.0681 9.8691 16.4741 9.9251 18.2661Z" fill="#949494"/>
<path fill-rule="evenodd" clip-rule="evenodd" d="M12.178 19.775C11.662 21.816 9.963 23.448 7.902 23.874C4.213 24.635 1 21.847 1 18.319C1 16.047 2.332 14.099 4.246 13.191V3.434C4.246 2.089 5.336 1 6.681 1C8.026 1 9.115 2.089 9.115 3.434V13.191C11.434 14.291 12.896 16.936 12.178 19.775Z" stroke="#949494"/>
<path fill-rule="evenodd" clip-rule="evenodd" d="M6.68087 11.5327C7.03387 11.5327 7.31987 11.8177 7.31987 12.1717V18.1967C7.31987 18.5497 7.03387 18.8357 6.68087 18.8357C6.32787 18.8357 6.04187 18.5497 6.04187 18.1967V12.1717C6.04187 11.8177 6.32787 11.5327 6.68087 11.5327Z" fill="#949494"/>
</svg>
