<svg width="28" height="23" viewBox="0 0 28 23" fill="none" xmlns="http://www.w3.org/2000/svg">
<path fill-rule="evenodd" clip-rule="evenodd" d="M20.492 10.496C20.492 16.017 16.017 20.492 10.496 20.492C4.975 20.492 0.5 16.017 0.5 10.496C0.5 4.975 4.975 0.5 10.496 0.5C16.017 0.5 20.492 4.975 20.492 10.496Z" stroke="#808080"/>
<path d="M10.317 0.5C10.317 0.5 4.24805 3.475 4.24805 10.496C4.24805 17.517 10.317 20.492 10.317 20.492" stroke="#808080"/>
<path d="M10.6748 20.492C10.6748 20.492 16.7438 17.517 16.7438 10.496C16.7438 3.475 10.6748 0.5 10.6748 0.5" stroke="#808080"/>
<path d="M10.4961 20.492V0.5" stroke="#808080"/>
<path d="M20.492 10.4961H0.5" stroke="#808080"/>
<path d="M2.67383 4.57324C2.67383 4.57324 5.98783 5.70924 10.3168 5.70924C14.6448 5.70924 18.3178 4.57324 18.3178 4.57324" stroke="#808080"/>
<path d="M18.3178 16.4192C18.3178 16.4192 15.0038 15.2832 10.6748 15.2832C6.34683 15.2832 2.67383 16.4192 2.67383 16.4192" stroke="#808080"/>
<path fill-rule="evenodd" clip-rule="evenodd" d="M27.5002 14.6178C27.5002 18.9118 24.0192 22.3917 19.7252 22.3917C15.4322 22.3917 11.9512 18.9118 11.9512 14.6178C11.9512 10.3238 15.4322 6.84375 19.7252 6.84375C24.0192 6.84375 27.5002 10.3238 27.5002 14.6178Z" fill="#202020"/>
<path fill-rule="evenodd" clip-rule="evenodd" d="M25.6334 14.618C25.6334 17.881 22.9884 20.526 19.7254 20.526C16.4624 20.526 13.8174 17.881 13.8174 14.618C13.8174 11.355 16.4624 8.70996 19.7254 8.70996C22.9884 8.70996 25.6334 11.355 25.6334 14.618Z" stroke="#808080"/>
<path fill-rule="evenodd" clip-rule="evenodd" d="M19.2764 18.9206V14.7566C19.2764 14.5086 19.4774 14.3066 19.7254 14.3066C19.9744 14.3066 20.1754 14.5086 20.1754 14.7566V18.9206C20.1754 19.1696 19.9744 19.3706 19.7254 19.3706C19.4774 19.3706 19.2764 19.1696 19.2764 18.9206Z" fill="#808080"/>
<path fill-rule="evenodd" clip-rule="evenodd" d="M20.6242 14.6178C20.6242 15.1148 20.2212 15.5168 19.7252 15.5168C19.2282 15.5168 18.8262 15.1148 18.8262 14.6178C18.8262 14.1208 19.2282 13.7188 19.7252 13.7188C20.2212 13.7188 20.6242 14.1208 20.6242 14.6178Z" fill="#808080"/>
<path fill-rule="evenodd" clip-rule="evenodd" d="M22.4253 12.5534L20.1413 14.8374C19.9663 15.0124 19.6813 15.0124 19.5053 14.8374C19.3303 14.6614 19.3303 14.3774 19.5053 14.2014L21.7893 11.9174C21.9653 11.7424 22.2493 11.7424 22.4253 11.9174C22.6013 12.0934 22.6013 12.3784 22.4253 12.5534Z" fill="#808080"/>
</svg>
