<svg width="159" height="114" viewBox="0 0 159 114" fill="none" xmlns="http://www.w3.org/2000/svg">
<path opacity="0.3" d="M79.4763 24.2648C102.346 24.2658 124.341 33.0459 140.916 48.7904C142.164 50.0059 144.159 49.9906 145.389 48.756L157.319 36.7252C157.942 36.0991 158.289 35.2509 158.284 34.3684C158.279 33.4859 157.922 32.6418 157.292 32.0229C113.789 -9.63325 45.1571 -9.63325 1.65386 32.0229C1.02368 32.6413 0.666131 33.4851 0.66032 34.3677C0.654509 35.2502 1.00092 36.0986 1.6229 36.7252L13.5572 48.756C14.7857 49.9925 16.7822 50.0078 18.0296 48.7904C34.6064 33.0449 56.6042 24.2647 79.4763 24.2648Z" fill="white"/>
<path d="M79.4764 63.406C92.0419 63.4052 104.159 68.0718 113.473 76.4989C114.733 77.6949 116.718 77.669 117.946 76.4405L129.863 64.4097C130.49 63.7786 130.838 62.9226 130.829 62.033C130.82 61.1434 130.455 60.2946 129.815 59.6764C101.451 33.3148 57.5261 33.3148 29.1624 59.6764C28.5217 60.2946 28.1562 61.1438 28.1478 62.0337C28.1394 62.9236 28.4888 63.7796 29.1177 64.4097L41.0314 76.4405C42.2594 77.669 44.2439 77.6949 45.5037 76.4989C54.8118 68.0773 66.9192 63.4112 79.4764 63.406Z" fill="#BBA429"/>
<path d="M102.378 92.1184C103.016 91.4934 103.367 90.6334 103.349 89.7413C103.33 88.8492 102.944 88.0042 102.282 87.4058C89.1171 76.2802 69.8359 76.2802 56.6709 87.4058C56.0081 88.0037 55.6216 88.8485 55.6027 89.7406C55.5839 90.6326 55.9342 91.493 56.5711 92.1184L77.1887 112.904C77.793 113.515 78.6169 113.859 79.4765 113.859C80.3361 113.859 81.16 113.515 81.7643 112.904L102.378 92.1184Z" fill="#BBA429"/>
</svg>
