<svg width="159" height="114" viewBox="0 0 159 114" fill="none" xmlns="http://www.w3.org/2000/svg">
<path d="M79.4762 24.2648C102.346 24.2658 124.341 33.0459 140.916 48.7904C142.164 50.0059 144.159 49.9906 145.388 48.756L157.319 36.7252C157.942 36.0991 158.289 35.2509 158.284 34.3684C158.278 33.4859 157.922 32.6418 157.292 32.0229C113.789 -9.63325 45.1571 -9.63325 1.65377 32.0229C1.02359 32.6413 0.666039 33.4851 0.660228 34.3677C0.654417 35.2502 1.00083 36.0986 1.62281 36.7252L13.5571 48.756C14.7856 49.9925 16.7821 50.0078 18.0295 48.7904C34.6063 33.0449 56.6041 24.2647 79.4762 24.2648Z" fill="#28B036"/>
<path d="M79.4763 63.406C92.0418 63.4052 104.159 68.0718 113.473 76.4989C114.733 77.6949 116.717 77.669 117.945 76.4405L129.863 64.4097C130.49 63.7786 130.838 62.9226 130.829 62.033C130.82 61.1434 130.455 60.2946 129.814 59.6764C101.451 33.3148 57.526 33.3148 29.1623 59.6764C28.5216 60.2946 28.1561 61.1438 28.1477 62.0337C28.1393 62.9236 28.4887 63.7796 29.1176 64.4097L41.0313 76.4405C42.2593 77.669 44.2438 77.6949 45.5036 76.4989C54.8117 68.0773 66.9191 63.4112 79.4763 63.406Z" fill="#28B036"/>
<path d="M102.378 92.1184C103.016 91.4934 103.367 90.6334 103.348 89.7413C103.33 88.8492 102.944 88.0042 102.282 87.4058C89.117 76.2802 69.8358 76.2802 56.6708 87.4058C56.008 88.0037 55.6215 88.8485 55.6027 89.7406C55.5838 90.6326 55.9341 91.493 56.5711 92.1184L77.1886 112.904C77.7929 113.515 78.6168 113.859 79.4764 113.859C80.336 113.859 81.1599 113.515 81.7642 112.904L102.378 92.1184Z" fill="#29BB38"/>
</svg>
