<svg width="159" height="114" viewBox="0 0 159 114" fill="none" xmlns="http://www.w3.org/2000/svg">
<path opacity="0.3" d="M79.5043 24.2648C102.374 24.2658 124.369 33.0459 140.944 48.7904C142.192 50.0059 144.187 49.9906 145.417 48.756L157.347 36.7252C157.97 36.0991 158.317 35.2509 158.312 34.3684C158.307 33.4859 157.95 32.6418 157.32 32.0229C113.817 -9.63325 45.1852 -9.63325 1.68187 32.0229C1.0517 32.6413 0.694146 33.4851 0.688335 34.3677C0.682524 35.2502 1.02893 36.0986 1.65091 36.7252L13.5852 48.756C14.8137 49.9925 16.8102 50.0078 18.0576 48.7904C34.6344 33.0449 56.6322 24.2647 79.5043 24.2648Z" fill="white"/>
<path opacity="0.3" d="M79.5044 63.406C92.0699 63.4052 104.187 68.0718 113.501 76.4989C114.761 77.6949 116.746 77.669 117.974 76.4405L129.891 64.4097C130.518 63.7786 130.867 62.9226 130.857 62.033C130.848 61.1434 130.483 60.2946 129.843 59.6764C101.479 33.3148 57.5541 33.3148 29.1904 59.6764C28.5497 60.2946 28.1842 61.1438 28.1758 62.0337C28.1674 62.9236 28.5168 63.7796 29.1457 64.4097L41.0594 76.4405C42.2874 77.669 44.2719 77.6949 45.5317 76.4989C54.8398 68.0773 66.9473 63.4112 79.5044 63.406Z" fill="white"/>
<path d="M102.406 92.1184C103.044 91.4934 103.395 90.6334 103.377 89.7413C103.358 88.8492 102.972 88.0042 102.31 87.4058C89.1451 76.2802 69.8639 76.2802 56.6989 87.4058C56.0361 88.0037 55.6496 88.8485 55.6308 89.7406C55.6119 90.6326 55.9622 91.493 56.5992 92.1184L77.2167 112.904C77.821 113.515 78.6449 113.859 79.5045 113.859C80.3641 113.859 81.188 113.515 81.7923 112.904L102.406 92.1184Z" fill="#BB2929"/>
</svg>
