<svg width="80" height="80" viewBox="0 0 80 80" fill="none" xmlns="http://www.w3.org/2000/svg">
<path d="M34.5344 30.508C34.5344 19.733 22.5281 11.3525 22.5281 11.3525C22.5281 11.3525 10.5217 19.733 10.5217 30.508C10.5217 33.6832 11.7867 36.7283 14.0383 38.9736C16.2899 41.2188 19.3438 42.4801 22.5281 42.4801C25.7124 42.4801 28.7662 41.2188 31.0179 38.9736C33.2695 36.7283 34.5344 33.6832 34.5344 30.508Z" stroke="white" stroke-width="2" stroke-linecap="square" stroke-linejoin="round"/>
<path d="M29.6429 30.4739C29.6429 32.3609 28.8933 34.1706 27.559 35.5049C26.2247 36.8392 24.415 37.5888 22.528 37.5888" stroke="white" stroke-width="2"/>
<rect x="9" y="57" width="62" height="12" stroke="white" stroke-width="2" stroke-linecap="square" stroke-linejoin="round"/>
<path fill-rule="evenodd" clip-rule="evenodd" d="M72.0228 32.4919C72.5009 32.2159 72.6663 31.6039 72.3765 31.1341C69.5604 26.5672 65.6032 22.6134 60.6308 19.7426C55.6584 16.8717 50.2555 15.4216 44.8923 15.2662C44.3405 15.2503 43.8932 15.6995 43.8932 16.2515C43.8932 16.8042 44.3417 17.2505 44.8942 17.2676C49.9167 17.4229 54.9745 18.7863 59.6308 21.4746C64.2871 24.1629 67.9966 27.8613 70.6424 32.1331C70.9334 32.603 71.5441 32.7683 72.0228 32.4919Z" fill="white"/>
<path fill-rule="evenodd" clip-rule="evenodd" d="M54.9129 42.3705C55.391 42.0945 55.558 41.4809 55.2483 41.024C54.1213 39.3614 52.6102 37.9214 50.7539 36.8497C48.8976 35.7779 46.8949 35.1892 44.8914 35.0446C44.3409 35.0048 43.8931 35.4563 43.8931 36.0083C43.8931 36.561 44.3422 37.0045 44.893 37.0513C46.5553 37.1924 48.2136 37.6924 49.7539 38.5817C51.2942 39.471 52.5563 40.6571 53.5097 42.026C53.8256 42.4796 54.4342 42.6469 54.9129 42.3705Z" fill="white"/>
<path fill-rule="evenodd" clip-rule="evenodd" d="M63.1269 37.6279C63.6028 37.3532 63.7696 36.7447 63.4785 36.2787C61.4865 33.0908 58.7063 30.331 55.2238 28.3204C51.9609 26.4365 48.4366 25.4154 44.9152 25.1863C44.3549 25.1498 43.893 25.6037 43.893 26.1652C43.893 26.7088 44.3271 27.1507 44.8695 27.1881C48.0657 27.4089 51.2623 28.3426 54.2238 30.0524C57.3862 31.8783 59.9163 34.3788 61.7372 37.2672C62.0332 37.7369 62.6461 37.9055 63.1269 37.6279Z" fill="white"/>
</svg>
