<svg width="80" height="80" viewBox="0 0 80 80" fill="none" xmlns="http://www.w3.org/2000/svg">
<rect x="31" y="23" width="18" height="6" rx="1" stroke="white" stroke-width="2" stroke-linecap="square" stroke-linejoin="round"/>
<path d="M58 17H70V25C70 27.2091 68.2091 29 66 29H62C59.7909 29 58 27.2091 58 25V17Z" stroke="white" stroke-width="2" stroke-linecap="square" stroke-linejoin="round"/>
<path d="M25 11.25C25 9.5924 24.3679 8.00269 23.2426 6.83058C22.1174 5.65848 20.5913 5 19 5C17.4087 5 15.8826 5.65848 14.7574 6.83058C13.6321 8.00268 13 9.5924 13 11.25L13 29" stroke="white" stroke-width="2" stroke-linecap="square" stroke-linejoin="round"/>
<rect x="5" y="29" width="70" height="38" rx="1" stroke="white" stroke-width="2" stroke-linecap="square" stroke-linejoin="round"/>
<path d="M27 35H18" stroke="white" stroke-width="2" stroke-linecap="square" stroke-linejoin="round"/>
<path d="M40 29.25V66.75" stroke="white" stroke-width="2" stroke-linecap="square" stroke-linejoin="round"/>
<path d="M45.9999 43V53" stroke="white" stroke-width="2" stroke-linecap="square" stroke-linejoin="round"/>
</svg>
