<svg width="80" height="80" viewBox="0 0 80 80" fill="none" xmlns="http://www.w3.org/2000/svg">
<path d="M9 30H30.9429C36.4973 30 41 25.5228 41 20C41 14.4772 36.4973 10 30.9429 10C27.4123 10 24.3066 11.8089 22.5122 14.5455" stroke="white" stroke-width="2"/>
<path d="M13 40H62.8319C68.4476 40 73 35.5228 73 30C73 24.4772 68.4476 20 62.8319 20C59.2624 20 56.1225 21.8089 54.3083 24.5455" stroke="white" stroke-width="2"/>
<path d="M17 50H41.8684C47.4639 50 52 54.4772 52 60C52 65.5228 47.4639 70 41.8684 70C38.3117 70 35.1831 68.1911 33.3753 65.4545" stroke="white" stroke-width="2"/>
</svg>
