<svg width="80" height="80" viewBox="0 0 80 80" fill="none" xmlns="http://www.w3.org/2000/svg">
<path d="M10.8947 32.7591L11.1546 33.7247L10.8947 32.7591ZM18.9999 30.5769H19.9999C19.9999 30.2658 19.8552 29.9724 19.6082 29.7832C19.3613 29.5939 19.0404 29.5304 18.74 29.6113L18.9999 30.5769ZM9.66937 32.1403L10.6027 31.7813L10.6027 31.7813L9.66937 32.1403ZM5.32291 20.8396L6.25625 20.4806L6.25625 20.4806L5.32291 20.8396ZM5.81269 19.6113L6.24414 20.5134H6.24415L5.81269 19.6113ZM28 8.99994L27.9955 7.99995C27.8477 8.00062 27.7019 8.03404 27.5686 8.09781L28 8.99994ZM52 8.89087L52.4349 7.9904C52.2979 7.92423 52.1476 7.89019 51.9954 7.89088L52 8.89087ZM74.1636 19.596L74.5985 18.6955V18.6955L74.1636 19.596ZM74.6747 20.8458L75.608 21.2048L75.608 21.2048L74.6747 20.8458ZM70.3188 32.171L69.3855 31.8121V31.8121L70.3188 32.171ZM69.121 32.7633L69.381 31.7977L69.381 31.7977L69.121 32.7633ZM60.9999 30.5768L61.2599 29.6112C60.9595 29.5303 60.6386 29.5939 60.3917 29.7831C60.1447 29.9724 59.9999 30.2657 59.9999 30.5768H60.9999ZM11.1546 33.7247L19.2599 31.5425L18.74 29.6113L10.6347 31.7935L11.1546 33.7247ZM8.73603 32.4993C9.10829 33.4672 10.1596 33.9926 11.1546 33.7247L10.6347 31.7935C10.6317 31.7943 10.6292 31.7944 10.6262 31.7941C10.6226 31.7937 10.6181 31.7925 10.6133 31.7901C10.6086 31.7878 10.6057 31.7852 10.6042 31.7836C10.6032 31.7825 10.603 31.782 10.6027 31.7813L8.73603 32.4993ZM4.38956 21.1986L8.73603 32.4993L10.6027 31.7813L6.25625 20.4806L4.38956 21.1986ZM5.38123 18.7091C4.44984 19.1546 4.01833 20.2334 4.38957 21.1986L6.25625 20.4806C6.25607 20.4801 6.25707 20.4829 6.25702 20.4877C6.25697 20.492 6.25612 20.4961 6.25467 20.4997C6.25322 20.5034 6.25109 20.5067 6.24842 20.5096C6.24541 20.5129 6.24317 20.5139 6.24414 20.5134L5.38123 18.7091ZM27.5686 8.09781L5.38123 18.7091L6.24415 20.5134L28.4315 9.90207L27.5686 8.09781ZM51.9954 7.89088L27.9955 7.99995L28.0046 9.99993L52.0045 9.89086L51.9954 7.89088ZM74.5985 18.6955L52.4349 7.9904L51.5651 9.79133L73.7287 20.4964L74.5985 18.6955ZM75.608 21.2048C75.9861 20.2218 75.5215 19.1413 74.5985 18.6955L73.7287 20.4964C73.7343 20.4991 73.7367 20.5015 73.7378 20.5026C73.7393 20.5042 73.7398 20.5054 73.7399 20.5056C73.74 20.5059 73.7392 20.504 73.7392 20.4999C73.7391 20.4978 73.7393 20.4954 73.7397 20.4929C73.7402 20.4903 73.7408 20.4882 73.7413 20.4868L75.608 21.2048ZM71.2521 32.53L75.608 21.2048L73.7413 20.4868L69.3855 31.8121L71.2521 32.53ZM68.861 33.7289C69.8359 33.9914 70.88 33.4977 71.2521 32.53L69.3855 31.8121C69.386 31.8107 69.3869 31.8088 69.3882 31.8066C69.3895 31.8045 69.3909 31.8027 69.3923 31.8013C69.3949 31.7985 69.3965 31.7978 69.3961 31.798C69.3957 31.7982 69.3943 31.7987 69.3921 31.799C69.3903 31.7991 69.3868 31.7992 69.381 31.7977L68.861 33.7289ZM60.74 31.5425L68.8611 33.7289L69.381 31.7977L61.2599 29.6112L60.74 31.5425ZM61.9999 68.9999V30.5768H59.9999V68.9999H61.9999ZM58.9999 71.9999C60.6568 71.9999 61.9999 70.6567 61.9999 68.9999H59.9999C59.9999 69.5522 59.5522 69.9999 58.9999 69.9999V71.9999ZM20.9999 71.9999H58.9999V69.9999H20.9999V71.9999ZM17.9999 68.9999C17.9999 70.6567 19.3431 71.9999 20.9999 71.9999V69.9999C20.4477 69.9999 19.9999 69.5522 19.9999 68.9999H17.9999ZM17.9999 30.5769V68.9999H19.9999V30.5769H17.9999Z" fill="white"/>
<path d="M40 9H49.938C49.8353 9.82565 49.6056 10.6377 49.2527 11.4122C48.7581 12.4977 48.0302 13.4905 47.1055 14.3311C46.1806 15.172 45.0775 15.8434 43.8571 16.3029C42.6367 16.7625 41.3258 17 40 17C38.6742 17 37.3633 16.7625 36.1429 16.3029C34.9225 15.8434 33.8194 15.172 32.8945 14.3311C31.9698 13.4905 31.2419 12.4977 30.7473 11.4122C30.3944 10.6377 30.1647 9.82565 30.062 9L40 9Z" stroke="white" stroke-width="2" stroke-linecap="round" stroke-linejoin="round"/>
</svg>
