<svg width="80" height="80" viewBox="0 0 80 80" fill="none" xmlns="http://www.w3.org/2000/svg">
<path d="M31.6 34.6154L19.5536 25.6912C15.2592 32.1699 12 39.81 12 48.0769C12 55.2174 14.95 62.0654 20.201 67.1144C25.452 72.1635 32.5739 75 40 75C47.4261 75 54.548 72.1635 59.799 67.1144C65.05 62.0654 68 55.2174 68 48.0769C68 23.8462 42.8 5 42.8 5L31.6 34.6154Z" stroke="white" stroke-width="2" stroke-linejoin="round"/>
<path d="M36.4 57.6923L31.2373 53.8676C29.3968 56.6443 28 59.9186 28 63.4615C28 66.5217 29.2643 69.4566 31.5147 71.6205C33.7652 73.7843 36.8174 75 40 75C43.1826 75 46.2348 73.7843 48.4853 71.6205C50.7357 69.4566 52 66.5217 52 63.4615C52 53.0769 41.2 45 41.2 45L36.4 57.6923Z" stroke="white" stroke-width="2" stroke-linejoin="round"/>
</svg>
