<svg width="64" height="64" viewBox="0 0 64 64" fill="none" xmlns="http://www.w3.org/2000/svg">
<path d="M43.1998 32C43.1998 38.1856 38.1854 43.2 31.9998 43.2C25.8142 43.2 20.7998 38.1856 20.7998 32C20.7998 25.8145 25.8142 20.8 31.9998 20.8C38.1854 20.8 43.1998 25.8145 43.1998 32Z" stroke="white" stroke-width="3.2"/>
<path fill-rule="evenodd" clip-rule="evenodd" d="M7.9998 31.9993C7.9998 18.7449 18.7446 8.00005 31.9991 8.00005C37.175 8.00005 41.9683 9.63861 45.8884 12.4253C46.3407 11.4212 46.8987 10.4873 47.4934 9.64182C43.0969 6.58917 37.7569 4.80005 31.9991 4.80005C16.9773 4.80005 4.7998 16.9776 4.7998 31.9993C4.7998 47.021 16.9773 59.1985 31.9991 59.1985C47.0208 59.1985 59.1983 47.021 59.1983 31.9993C59.1983 28.6365 58.588 25.4163 57.4722 22.4433C57.4113 22.5126 57.3492 22.5808 57.2857 22.6479C56.5619 23.4135 55.7019 24.0021 54.766 24.3873C55.5653 26.7791 55.9983 29.3386 55.9983 31.9993C55.9983 45.2537 45.2535 55.9986 31.9991 55.9986C18.7446 55.9986 7.9998 45.2537 7.9998 31.9993Z" fill="white"/>
<path fill-rule="evenodd" clip-rule="evenodd" d="M43.5202 15.8544H43.2002V18.3854H43.5202C45.4087 18.3854 47.14 19.3796 48.4092 21.0296C49.6787 22.6799 50.4729 24.9735 50.4729 27.5199V27.8399H52.5675V27.5199C52.5675 24.9735 53.3617 22.6799 54.6312 21.0296C55.9004 19.3796 57.6317 18.3854 59.5202 18.3854H59.8402V15.8544H59.5202C57.6317 15.8544 55.9004 14.8602 54.6312 13.2102C53.3617 11.5599 52.5675 9.26631 52.5675 6.7199V6.3999H50.4729V6.7199C50.4729 9.26631 49.6787 11.5599 48.4092 13.2102C47.14 14.8602 45.4087 15.8544 43.5202 15.8544ZM51.5202 22.0642C52.3885 19.9502 53.7439 18.218 55.415 17.1199C53.7439 16.0217 52.3885 14.2896 51.5202 12.1756C50.6519 14.2896 49.2965 16.0217 47.6254 17.1199C49.2965 18.2181 50.6519 19.9502 51.5202 22.0642Z" fill="white"/>
<path fill-rule="evenodd" clip-rule="evenodd" d="M1.98833 53.4572H1.6001V55.3428H1.98833C2.9467 55.3428 3.84357 55.8704 4.51402 56.7827C5.1846 57.6951 5.61079 58.9737 5.61079 60.4029V60.8H7.1894V60.4029C7.1894 58.9737 7.61559 57.6951 8.28618 56.7827C8.95663 55.8704 9.8535 55.3428 10.8119 55.3428H11.2001V53.4572H10.8119C9.8535 53.4572 8.95663 52.9296 8.28618 52.0173C7.61559 51.1049 7.1894 49.8263 7.1894 48.3971V48H5.61079V48.3971C5.61079 49.8263 5.1846 51.1049 4.51402 52.0173C3.84357 52.9296 2.9467 53.4572 1.98833 53.4572ZM6.4001 52.0827C6.84294 53.0285 7.45385 53.8273 8.18911 54.4C7.45384 54.9726 6.84291 55.7714 6.40009 56.7173C5.95725 55.7714 5.34633 54.9726 4.61107 54.4C5.34634 53.8273 5.95726 53.0285 6.4001 52.0827Z" fill="white"/>
</svg>
