<svg width="32" height="59" viewBox="0 0 32 59" fill="none" xmlns="http://www.w3.org/2000/svg">
<path d="M30.344 7.74932H30.4647V7.62861V6.5V6.3793H30.344H1H0.879298V6.5V7.62861V7.74932H1H30.344Z" fill="white" stroke="white" stroke-width="0.241405"/>
<path d="M2.94093 1.69585H29.7257C30.2041 1.69585 30.5755 2.05248 30.5755 2.47306V56.527C30.5755 56.9476 30.204 57.3042 29.7257 57.3042H2.94093C2.46261 57.3042 2.09117 56.9476 2.09117 56.527V2.47306C2.09117 2.05248 2.46261 1.69585 2.94093 1.69585ZM2.94093 0.556544C1.81132 0.556544 0.879298 1.40594 0.879298 2.47306V56.527C0.879298 57.5941 1.81132 58.4435 2.94093 58.4435H29.7257C30.8553 58.4435 31.7874 57.5941 31.7874 56.527V2.47306C31.7874 1.40594 30.8553 0.556544 29.7257 0.556544H2.94093Z" fill="white" stroke="white" stroke-width="0.241405"/>
<path fill-rule="evenodd" clip-rule="evenodd" d="M11.0844 44.092C10.6727 43.6454 10.0979 43.0218 10.0979 42.1167C10.0979 41.3272 10.2623 40.7716 10.5361 40.3394C10.7361 40.0236 11.0046 39.778 11.1805 39.617C11.2237 39.5775 11.2613 39.5431 11.291 39.514C11.5366 39.273 11.931 39.2768 12.172 39.5224C12.413 39.768 12.4092 40.1624 12.1636 40.4034C12.0811 40.4843 12.0101 40.5498 11.9472 40.6078C11.796 40.7471 11.692 40.843 11.5887 41.0061C11.4671 41.198 11.3439 41.5098 11.3439 42.1167C11.3439 42.5202 11.5875 42.7894 12.1004 43.3563L12.1174 43.3751C12.5973 43.9055 13.2129 44.63 13.2129 45.798C13.2129 46.3446 12.9907 46.9584 12.7772 47.4163C12.6653 47.6563 12.544 47.8784 12.4309 48.0595C12.3304 48.2204 12.2015 48.4064 12.0678 48.5246C11.8098 48.7523 11.4161 48.7278 11.1884 48.4699C10.9607 48.212 10.9852 47.8183 11.2431 47.5906C11.239 47.5942 11.2402 47.5926 11.2464 47.5847C11.2614 47.5656 11.3054 47.5095 11.3741 47.3995C11.4587 47.264 11.5561 47.0868 11.6479 46.8899C11.8417 46.4741 11.9669 46.0638 11.9669 45.798C11.9669 45.1314 11.648 44.7135 11.1934 44.211C11.1589 44.1728 11.1223 44.1331 11.0844 44.092Z" fill="white"/>
<path fill-rule="evenodd" clip-rule="evenodd" d="M15.4472 44.092C15.0355 43.6454 14.4607 43.0218 14.4607 42.1167C14.4607 41.3272 14.6251 40.7716 14.8989 40.3394C15.0989 40.0236 15.3673 39.778 15.5433 39.617C15.5865 39.5775 15.6241 39.5431 15.6538 39.514C15.8994 39.273 16.2938 39.2768 16.5348 39.5224C16.7758 39.768 16.772 40.1624 16.5264 40.4034C16.4439 40.4843 16.3728 40.5498 16.31 40.6078C16.1588 40.7471 16.0548 40.843 15.9515 41.0061C15.8299 41.198 15.7067 41.5098 15.7067 42.1167C15.7067 42.5202 15.9503 42.7894 16.4632 43.3563L16.4802 43.3751C16.9601 43.9055 17.5757 44.63 17.5757 45.798C17.5757 46.3446 17.3535 46.9584 17.14 47.4163C17.0281 47.6563 16.9068 47.8784 16.7937 48.0595C16.6932 48.2204 16.5643 48.4064 16.4306 48.5246C16.1726 48.7523 15.7789 48.7278 15.5512 48.4699C15.3235 48.212 15.3479 47.8183 15.6059 47.5906C15.6018 47.5942 15.603 47.5926 15.6092 47.5847C15.6242 47.5656 15.6682 47.5095 15.7369 47.3995C15.8215 47.264 15.9189 47.0868 16.0107 46.8899C16.2045 46.4741 16.3297 46.0638 16.3297 45.798C16.3297 45.1314 16.0108 44.7135 15.5562 44.211C15.5217 44.1728 15.4851 44.1331 15.4472 44.092Z" fill="white"/>
<path fill-rule="evenodd" clip-rule="evenodd" d="M19.8076 44.092C19.3959 43.6454 18.8211 43.0218 18.8211 42.1167C18.8211 41.3272 18.9855 40.7716 19.2592 40.3394C19.4592 40.0236 19.7277 39.778 19.9037 39.617C19.9469 39.5775 19.9845 39.5431 20.0142 39.514C20.2598 39.273 20.6542 39.2768 20.8952 39.5224C21.1361 39.768 21.1323 40.1624 20.8867 40.4034C20.8042 40.4843 20.7332 40.5498 20.6703 40.6078C20.5192 40.7471 20.4151 40.843 20.3118 41.0061C20.1902 41.198 20.0671 41.5098 20.0671 42.1167C20.0671 42.5202 20.3106 42.7894 20.8236 43.3563L20.8405 43.3751C21.3204 43.9055 21.936 44.63 21.936 45.798C21.936 46.3446 21.7138 46.9584 21.5003 47.4163C21.3884 47.6563 21.2671 47.8784 21.1541 48.0595C21.0536 48.2204 20.9247 48.4064 20.7909 48.5246C20.533 48.7523 20.1393 48.7278 19.9116 48.4699C19.6838 48.212 19.7083 47.8183 19.9662 47.5906C19.9621 47.5942 19.9633 47.5926 19.9696 47.5847C19.9846 47.5656 20.0286 47.5095 20.0972 47.3995C20.1819 47.264 20.2792 47.0868 20.371 46.8899C20.5648 46.4741 20.6901 46.0638 20.6901 45.798C20.6901 45.1314 20.3712 44.7135 19.9166 44.211C19.882 44.1728 19.8455 44.1331 19.8076 44.092Z" fill="white"/>
<path fill-rule="evenodd" clip-rule="evenodd" d="M16.3287 52.4187C21.1456 52.4187 25.0506 48.5138 25.0506 43.6969C25.0506 38.8799 21.1456 34.975 16.3287 34.975C11.5117 34.975 7.60682 38.8799 7.60682 43.6969C7.60682 48.5138 11.5117 52.4187 16.3287 52.4187ZM16.3287 53.6647C21.8338 53.6647 26.2965 49.2019 26.2965 43.6969C26.2965 38.1918 21.8338 33.729 16.3287 33.729C10.8236 33.729 6.36084 38.1918 6.36084 43.6969C6.36084 49.2019 10.8236 53.6647 16.3287 53.6647Z" fill="white"/>
<path fill-rule="evenodd" clip-rule="evenodd" d="M16.1571 12.0179C11.3332 12.0179 7.42267 15.9284 7.42267 20.7523C7.42267 25.5762 11.3332 29.4867 16.1571 29.4867C20.981 29.4867 24.8915 25.5762 24.8915 20.7523C24.8915 15.9284 20.981 12.0179 16.1571 12.0179ZM6.3291 20.7523C6.3291 15.3245 10.7292 10.9243 16.1571 10.9243C21.5849 10.9243 25.9851 15.3245 25.9851 20.7523C25.9851 26.1801 21.5849 30.5803 16.1571 30.5803C10.7292 30.5803 6.3291 26.1801 6.3291 20.7523Z" fill="white"/>
<path fill-rule="evenodd" clip-rule="evenodd" d="M17.601 21.2113C16.4777 22.0131 15.1 22.9534 13.6007 22.9534C12.2296 22.9534 11.3217 22.6852 10.6389 22.2763C10.1308 21.972 9.75275 21.5828 9.4515 21.2727C9.36691 21.1856 9.28838 21.1047 9.21473 21.0338C8.99728 20.8242 8.99088 20.4781 9.20043 20.2606C9.40998 20.0432 9.75612 20.0368 9.97357 20.2463C10.0922 20.3607 10.1984 20.4696 10.2996 20.5734C10.5821 20.8632 10.8269 21.1142 11.2008 21.3381C11.6768 21.6232 12.3794 21.8598 13.6007 21.8598C14.694 21.8598 15.791 21.1597 16.9656 20.3212C17.0536 20.2584 17.1421 20.1948 17.231 20.1309C17.7074 19.7886 18.1936 19.4393 18.661 19.1663C19.2112 18.845 19.8157 18.5791 20.4355 18.5791C22.166 18.5791 23.228 19.5484 23.6633 20.0145C23.8694 20.2352 23.8576 20.5812 23.6369 20.7873C23.4162 20.9934 23.0702 20.9816 22.8641 20.7609C22.5138 20.3858 21.7217 19.6727 20.4355 19.6727C20.1126 19.6727 19.7155 19.8169 19.2125 20.1106C18.7939 20.3551 18.3577 20.6683 17.8799 21.0114C17.7885 21.077 17.6956 21.1437 17.601 21.2113Z" fill="white"/>
<path d="M28.9495 3.87977C28.9495 4.36214 28.5584 4.75318 28.0761 4.75318C27.5937 4.75318 27.2026 4.36214 27.2026 3.87977C27.2026 3.39739 27.5937 3.00635 28.0761 3.00635C28.5584 3.00635 28.9495 3.39739 28.9495 3.87977Z" fill="white"/>
</svg>
