<svg width="28" height="60" viewBox="0 0 28 60" fill="none" xmlns="http://www.w3.org/2000/svg">
<path fill-rule="evenodd" clip-rule="evenodd" d="M0 3C0 1.34315 1.34315 0 3 0H25C26.6569 0 28 1.34315 28 3V57C28 58.6569 26.6569 60 25 60H3C1.34315 60 0 58.6569 0 57V3ZM3.5 13.9232C3.5 13.3709 3.94772 12.9232 4.5 12.9232H6.1129C6.66519 12.9232 7.1129 13.3709 7.1129 13.9232V26.6924C7.1129 27.2447 6.66519 27.6924 6.1129 27.6924H4.5C3.94772 27.6924 3.5 27.2447 3.5 26.6924V13.9232ZM7.39783 36.855C7.2908 37.0028 7.23103 37.1781 7.22603 37.3589C7.22755 37.5989 7.32437 37.829 7.49623 38.0011C8.78438 39.2857 11.411 41.0106 14.5842 38.099L14.7287 37.9644C16.2934 36.5392 17.7323 36.5392 19.1776 38.0256C19.3537 38.191 19.5891 38.2831 19.8338 38.2827C20.0785 38.2822 20.3134 38.1891 20.4888 38.023C20.6643 37.857 20.7666 37.6311 20.774 37.393C20.7814 37.1549 20.6934 36.9233 20.5286 36.7472C18.3356 34.5513 15.753 34.5207 13.428 36.6554L13.2898 36.7839C12.2216 37.7687 10.7323 38.6495 8.84722 36.7472C8.71836 36.6169 8.55284 36.5266 8.37143 36.4876C8.19002 36.4487 8.00082 36.4627 7.8276 36.5281C7.65438 36.5934 7.50486 36.7072 7.39783 36.855ZM7.302 42.5723C7.25263 42.6851 7.22681 42.8064 7.22603 42.929C7.23479 43.1573 7.33062 43.3743 7.49482 43.5376C8.7763 44.852 11.3893 46.5317 14.5461 43.6349L14.6898 43.5071C16.2464 42.0709 17.6529 42.077 19.1156 43.5376C19.1981 43.6342 19.3003 43.7132 19.4156 43.7697C19.5309 43.8261 19.657 43.8588 19.7859 43.8656C19.9148 43.8724 20.0438 43.8532 20.1647 43.8093C20.2856 43.7653 20.3959 43.6975 20.4887 43.6102C20.5815 43.5228 20.6547 43.4177 20.7039 43.3015C20.753 43.1853 20.7769 43.0604 20.7742 42.9348C20.7715 42.8091 20.7421 42.6854 20.688 42.5713C20.6339 42.4572 20.5561 42.3552 20.4596 42.2718C18.278 40.0931 15.7088 40.0627 13.3959 42.1866L13.2583 42.3144C12.1957 43.2881 10.7141 44.1705 8.83881 42.2718C8.663 42.1008 8.42468 42.0048 8.1762 42.0048C7.92772 42.0048 7.68939 42.1008 7.51358 42.2718C7.42328 42.3573 7.35137 42.4594 7.302 42.5723ZM7.22603 48.4426C7.22793 48.2611 7.28496 48.0842 7.38995 47.9341C7.49494 47.784 7.64322 47.6674 7.81615 47.599C7.98907 47.5306 8.17895 47.5134 8.36191 47.5495C8.54486 47.5857 8.71275 47.6736 8.84448 47.8022C10.7264 49.7051 12.2131 48.8268 13.2795 47.851L13.4175 47.7169C15.7386 45.6189 18.3419 45.6189 20.5061 47.8022C20.5926 47.8883 20.6608 47.9902 20.7068 48.1019C20.7529 48.2136 20.7758 48.333 20.7743 48.4534C20.7729 48.5737 20.7471 48.6926 20.6984 48.8033C20.6496 48.9139 20.579 49.0141 20.4904 49.0982C20.4019 49.1823 20.2971 49.2486 20.1822 49.2934C20.0673 49.3381 19.9445 49.3604 19.8207 49.359C19.6969 49.3576 19.5746 49.3325 19.4608 49.2851C19.347 49.2378 19.2439 49.1691 19.1574 49.083C17.6895 47.6193 16.2781 47.6071 14.7161 49.0464L14.5655 49.1806C11.429 52.0836 8.78175 50.3637 7.49577 49.083C7.32421 48.9114 7.22755 48.6819 7.22603 48.4426Z" fill="white"/>
</svg>
