<svg width="67" height="105" viewBox="0 0 67 105" fill="none" xmlns="http://www.w3.org/2000/svg">
<path fill-rule="evenodd" clip-rule="evenodd" d="M62 105C64.7614 105 67 102.761 67 100L67 33L5.62303e-06 33L0 100C0 102.761 2.23857 105 5 105L62 105ZM33.5 92C49.2401 92 62 79.2401 62 63.5C62 47.7599 49.2401 35 33.5 35C17.7599 35 5.00001 47.7599 5.00001 63.5C5.00001 79.2401 17.7599 92 33.5 92Z" fill="white"/>
<path fill-rule="evenodd" clip-rule="evenodd" d="M42.2125 72.8907C37.7435 65.1502 40.3821 55.2565 48.1034 50.7671C46.7946 49.3664 45.2592 48.133 43.5128 47.1247C41.7676 46.1171 39.9331 45.4045 38.0669 44.9712C38.0604 47.71 37.3592 50.4843 35.8916 53.0264C31.5313 60.5786 22.0138 63.2968 14.3559 59.3011C13.4659 62.6956 13.5122 66.2142 14.4006 69.5057C19.3455 66.3255 25.852 65.9547 31.2942 69.0967C36.548 72.13 39.4624 77.6591 39.4045 83.3217C42.4262 82.3957 45.233 80.7517 47.5455 78.4643C45.4115 77.1084 43.5641 75.2319 42.2125 72.8907ZM32.8687 63.4923C32.421 64.2678 32.6867 65.2595 33.4622 65.7072C34.2377 66.155 35.2294 65.8893 35.6771 65.1137C36.1248 64.3382 35.8591 63.3466 35.0836 62.8988C34.3081 62.4511 33.3165 62.7168 32.8687 63.4923Z" fill="white"/>
<path fill-rule="evenodd" clip-rule="evenodd" d="M0 5C0 2.23858 2.23858 0 5 0H62C64.7614 0 67 2.23858 67 5V29H0V5ZM30.6381 19.3081C27.9826 17.775 27.0728 14.3795 28.6059 11.724C30.1391 9.06857 33.5346 8.15874 36.19 9.69187C38.8455 11.225 39.7553 14.6205 38.2222 17.276C36.6891 19.9314 33.2935 20.8413 30.6381 19.3081ZM16 3C15.4477 3 15 3.44772 15 4V24C15 24.5523 15.4477 25 16 25H17C17.5523 25 18 24.5523 18 24V4C18 3.44772 17.5523 3 17 3H16Z" fill="white"/>
<path d="M33.4131 91.7909C29.7945 91.7909 26.2112 91.0782 22.868 89.6934C19.5248 88.3086 16.4871 86.2789 13.9284 83.7201C11.3696 81.1613 9.33985 78.1236 7.95505 74.7804C6.57025 71.4372 5.8575 67.854 5.8575 64.2353C5.8575 60.6167 6.57025 57.0334 7.95505 53.6902C9.33985 50.347 11.3696 47.3093 13.9284 44.7505C16.4871 42.1918 19.5248 40.162 22.868 38.7772C26.2113 37.3924 29.7945 36.6797 33.4131 36.6797C37.0318 36.6797 40.615 37.3924 43.9582 38.7772C47.3014 40.162 50.3391 42.1918 52.8979 44.7505C55.4567 47.3093 57.4864 50.347 58.8712 53.6902C60.256 57.0334 60.9687 60.6167 60.9687 64.2353C60.9687 67.854 60.256 71.4372 58.8712 74.7804C57.4864 78.1236 55.4567 81.1613 52.8979 83.7201C50.3391 86.2789 47.3014 88.3086 43.9582 89.6934C40.615 91.0782 37.0318 91.7909 33.4131 91.7909L33.4131 91.7909Z" stroke="#979797" stroke-width="4"/>
<path d="M13.9283 83.724C11.3695 81.1652 9.33981 78.1275 7.95501 74.7843C6.57021 71.4411 5.85746 67.8579 5.85746 64.2392C5.85746 60.6206 6.57021 57.0373 7.95501 53.6941C9.33981 50.3509 11.3695 47.3132 13.9283 44.7544C16.4871 42.1957 19.5248 40.1659 22.868 38.7811C26.2112 37.3963 29.7944 36.6836 33.4131 36.6836" stroke="#979797" stroke-width="4"/>
</svg>
