<svg width="80" height="80" viewBox="0 0 80 80" fill="none" xmlns="http://www.w3.org/2000/svg">
<path fill-rule="evenodd" clip-rule="evenodd" d="M50.9999 11C50.9999 10.4477 50.5522 10 49.9999 10H31C30.4477 10 30 10.4477 30 11V31.8756C30 32.1172 30.0875 32.3507 30.2463 32.5328L39.7464 43.4272C40.1449 43.8843 40.8552 43.8843 41.2537 43.4272L50.7537 32.5328C50.9125 32.3507 51 32.1172 51 31.8756L50.9999 11ZM39.5 46.5626C39.5 46.3209 39.4125 46.0875 39.2537 45.9053L28.4926 33.5648C28.175 33.2006 28 32.7336 28 32.2504V10C28 8.89543 28.8954 8 30 8H50.9999C52.1045 8 52.9999 8.89542 52.9999 9.99999L53 32.2504C53 32.7336 52.825 33.2006 52.5074 33.5648L41.7463 45.9055C41.5875 46.0876 41.5 46.321 41.5 46.5626V67C41.5 68.1046 42.3954 69 43.5 69H52C52.5523 69 53 69.4477 53 70C53 70.5523 52.5523 71 52 71H29C28.4477 71 28 70.5523 28 70C28 69.4477 28.4477 69 29 69H37.5C38.6046 69 39.5 68.1046 39.5 67V46.5626Z" fill="white"/>
</svg>
