<svg width="64" height="64" viewBox="0 0 64 64" fill="none" xmlns="http://www.w3.org/2000/svg">
<path fill-rule="evenodd" clip-rule="evenodd" d="M33.1071 5.12642L33.1453 1.84521L24.2011 6.7116L33.0296 11.774L33.0662 8.63512C43.0137 8.89845 52.5686 15.7604 55.4936 25.3527C58.6987 35.8602 53.07 47.6465 43.2045 52.3907L42.4026 52.7764L44.1905 55.6634L44.8387 55.3517C56.5149 49.7366 62.693 36.6637 58.871 24.1338C55.3939 12.731 44.7393 5.31561 33.1071 5.12642Z" fill="white"/>
<path fill-rule="evenodd" clip-rule="evenodd" d="M21.4511 11.2894L19.6434 8.41422L18.9975 8.73009C7.36004 14.4206 1.27237 27.5334 5.18071 40.0382C8.73649 51.4183 19.4421 58.7646 31.0754 58.8784L31.0598 62.1595L39.9702 57.2354L31.107 52.2302L31.092 55.3695C21.143 55.1703 11.5409 48.3703 8.54965 38.7969C5.27209 28.3103 10.8194 16.4881 20.6515 11.6803L21.4511 11.2894Z" fill="white"/>
<path fill-rule="evenodd" clip-rule="evenodd" d="M40.7965 34.0847H36.975V34.8847C36.975 36.3295 36.2841 37.7532 34.987 38.829C33.6854 39.9086 31.893 40.5337 29.9997 40.5337H29.1997V43.9762H29.9997C32.8198 43.9762 35.5479 43.0483 37.5793 41.3635C39.6149 39.675 40.7965 37.3494 40.7965 34.8847V34.0847Z" fill="white"/>
<path fill-rule="evenodd" clip-rule="evenodd" d="M32.5516 13.4872C31.9368 13.0694 31.122 13.0694 30.5072 13.4872L30.5003 13.4918L30.4891 13.4995L30.4559 13.5224C30.4266 13.5428 30.3854 13.5716 30.333 13.6087C30.2282 13.6829 30.0788 13.7904 29.891 13.9297C29.5156 14.2082 28.9861 14.6144 28.3537 15.1361C27.0915 16.1775 25.4063 17.69 23.7163 19.5763C20.3819 23.2982 16.8053 28.7254 16.8053 35.0128C16.8053 38.8139 18.3611 42.4553 21.1243 45.1373C23.8868 47.8187 27.63 49.322 31.5294 49.322C35.4288 49.322 39.1719 47.8187 41.9345 45.1373C44.6977 42.4554 46.2535 38.8139 46.2535 35.0128C46.2535 28.7254 42.6769 23.2982 39.3424 19.5763C37.6525 17.69 35.9673 16.1775 34.7051 15.1361C34.0727 14.6144 33.5432 14.2082 33.1678 13.9297C32.98 13.7905 32.8305 13.6829 32.7258 13.6087C32.6733 13.5715 32.6306 13.5417 32.6014 13.5214L32.5672 13.4979L32.5566 13.4906L32.5516 13.4872ZM30.4101 17.5206C30.8449 17.1619 31.2249 16.8641 31.5295 16.6323C31.8341 16.8641 32.214 17.1619 32.6488 17.5206C33.8221 18.4886 35.3848 19.892 36.9439 21.6322C40.0967 25.1514 43.0644 29.8573 43.0644 35.0128C43.0644 37.9785 41.8507 40.824 39.6881 42.9231C37.5253 45.0224 34.5906 46.2027 31.5295 46.2027C28.4683 46.2027 25.5337 45.0224 23.3708 42.9231C21.2082 40.824 19.9945 37.9785 19.9945 35.0128C19.9945 29.8573 22.9623 25.1514 26.115 21.6322C27.6741 19.892 29.2368 18.4886 30.4101 17.5206Z" fill="white"/>
</svg>
