<svg width="121" height="121" viewBox="0 0 121 121" fill="none" xmlns="http://www.w3.org/2000/svg">
<path d="M47.3289 67.719L49.0876 103.09C49.1713 104.76 50.1644 106.291 51.9111 106.908C53.933 107.631 56.9839 108.418 60.5851 108.418C64.1863 108.418 67.2252 107.631 69.2591 106.908C71.0058 106.291 71.9988 104.749 72.0826 103.09L73.8413 67.719" stroke="white" stroke-width="2" stroke-miterlimit="10"/>
<path d="M75.6118 24.9778C77.7056 25.5095 82.1801 27.2111 83.3048 29.7634C84.7046 32.9539 85.3985 36.1443 84.7046 41.4617C84.2499 44.8754 82.8741 53.7873 81.8691 60.2001C81.4384 62.9332 80.7085 66.23 77.7175 66.9851C76.0425 67.4105 68.8641 68.2294 65.8372 68.5803" stroke="white" stroke-width="2" stroke-miterlimit="10"/>
<path d="M55.4519 68.5803C52.425 68.2294 45.2465 67.4105 43.5715 66.9851C40.5925 66.23 39.8507 62.9226 39.42 60.2001C38.415 53.798 37.0272 44.8861 36.5845 41.4617C35.8906 36.1443 36.5845 32.9539 37.9843 29.7634C39.097 27.2111 43.5715 25.5095 45.6772 24.9778" stroke="white" stroke-width="2" stroke-miterlimit="10"/>
<path d="M66.0164 36.2507C69.6535 36.1231 72.8001 35.9104 74.4152 35.7934C75.7432 35.6977 76.6884 34.6555 76.5807 33.4963L75.1091 18.6395C75.0134 17.7356 74.2956 16.9912 73.3026 16.7678L68.0144 15.5767L67.1291 14.1091C66.5069 13.0669 65.2986 12.4182 63.9706 12.4182H57.1989C55.8709 12.4182 54.6505 13.0669 54.0284 14.1091L53.143 15.5767L47.8549 16.7572C46.8739 16.9912 46.156 17.7356 46.0723 18.6395L44.5887 33.4963C44.4691 34.6555 45.4262 35.6977 46.7542 35.7934C48.3933 35.921 51.5757 36.1337 55.2487 36.2613" stroke="white" stroke-width="2"/>
<path d="M63.779 77.0881H57.3902C55.9904 77.0881 54.8538 75.9458 54.8538 74.5389V26.4636C54.8538 25.0567 55.9904 23.9143 57.3902 23.9143H63.779C65.1788 23.9143 66.3154 25.0567 66.3154 26.4636V74.5389C66.3154 75.9458 65.1788 77.0881 63.779 77.0881Z" stroke="white" stroke-width="1.1332" stroke-miterlimit="10"/>
</svg>
