<svg width="80" height="80" viewBox="0 0 80 80" fill="none" xmlns="http://www.w3.org/2000/svg">
<mask id="path-1-outside-1_1889_1370" maskUnits="userSpaceOnUse" x="21.4231" y="17" width="37" height="55" fill="black">
<rect fill="white" x="21.4231" y="17" width="37" height="55"/>
<path fill-rule="evenodd" clip-rule="evenodd" d="M27.5215 19.6434C27.9001 19.2333 28.4329 19 28.9911 19H51.8552C52.4134 19 52.9462 19.2333 53.3248 19.6434L55.8928 22.4254C56.2338 22.7949 56.4232 23.2792 56.4232 23.782V65.9999C56.4232 66 56.4231 66 56.4231 66C56.4231 66 56.423 66 56.423 66L53.3247 69.3566C52.9461 69.7667 52.4133 70 51.8551 70L28.991 70C28.4328 70 27.9 69.7667 27.5214 69.3566L24.4231 66.0001C24.4231 66 24.4231 66 24.4231 66C24.4232 66 24.4232 66 24.4232 66V23.782C24.4232 23.2792 24.6125 22.7949 24.9536 22.4254L27.5215 19.6434Z"/>
</mask>
<path d="M24.9536 22.4254L23.484 21.0688L24.9536 22.4254ZM24.4231 66.0001L22.9535 67.3566L24.4231 66.0001ZM28.991 70L28.991 68L28.991 70ZM27.5214 69.3566L28.991 68L27.5214 69.3566ZM53.3247 69.3566L54.7943 70.7131L53.3247 69.3566ZM51.8551 70L51.8551 68L51.8551 70ZM56.423 66L54.9534 64.6435L56.423 66ZM27.5215 19.6434L26.0519 18.2869L27.5215 19.6434ZM53.3248 19.6434L54.7944 18.2869L53.3248 19.6434ZM51.8552 17H28.9911V21H51.8552V17ZM57.3624 21.0688L54.7944 18.2869L51.8552 21L54.4232 23.782L57.3624 21.0688ZM58.4232 65.9999V23.782H54.4232V65.9999H58.4232ZM54.9534 64.6435L51.8551 68L54.7943 70.7131L57.8926 67.3566L54.9534 64.6435ZM51.8551 68L28.991 68L28.991 72L51.8551 72L51.8551 68ZM28.991 68L25.8927 64.6435L22.9535 67.3566L26.0518 70.7131L28.991 68ZM22.4232 23.782V66H26.4232V23.782H22.4232ZM26.0519 18.2869L23.484 21.0688L26.4232 23.782L28.9911 21L26.0519 18.2869ZM26.4232 23.782L26.4232 23.782L23.484 21.0688C22.8019 21.8077 22.4232 22.7764 22.4232 23.782H26.4232ZM24.4848 67.9991C25.5988 67.9647 26.4232 67.0463 26.4232 66H22.4232C22.4232 64.9537 23.2475 64.0353 24.3614 64.001L24.4848 67.9991ZM25.8927 64.6435C27.0362 65.8823 26.2266 67.9453 24.4848 67.9991L24.3614 64.001C22.6196 64.0547 21.8099 66.1178 22.9535 67.3566L25.8927 64.6435ZM28.991 68H28.991L26.0518 70.7131C26.809 71.5335 27.8746 72 28.991 72L28.991 68ZM51.8551 68L51.8551 72C52.9715 72 54.0371 71.5335 54.7943 70.7131L51.8551 68ZM56.4231 64C55.8649 64 55.332 64.2333 54.9534 64.6435L57.8926 67.3566C57.514 67.7667 56.9813 68 56.4231 68V64ZM54.4232 65.9999C54.4232 64.8954 55.3186 64 56.4231 64V68C57.5277 68 58.4232 67.1045 58.4232 65.9999H54.4232ZM54.4232 23.782V23.782H58.4232C58.4232 22.7764 58.0444 21.8077 57.3624 21.0688L54.4232 23.782ZM28.9911 17C27.8747 17 26.8092 17.4666 26.0519 18.2869L28.9911 21V17ZM51.8552 21V21L54.7944 18.2869C54.0372 17.4666 52.9716 17 51.8552 17V21Z" fill="white" mask="url(#path-1-outside-1_1889_1370)"/>
<path d="M23 23.2693H57.1538" stroke="white" stroke-width="2"/>
<path d="M23 65.9615H57.1538" stroke="white" stroke-width="2"/>
<path d="M24 50.3511C37.0625 37.9956 44.625 64.6574 57 52.9522" stroke="white" stroke-width="2" stroke-linecap="round"/>
<path d="M24 36.3511C37.0625 23.9956 44.625 50.6574 57 38.9522" stroke="white" stroke-width="2" stroke-linecap="round"/>
<path d="M34 18V9.73459C34 8.73929 33.2681 7.89545 32.2828 7.75469L20 6" stroke="white" stroke-width="2" stroke-linecap="round"/>
</svg>
