<svg width="64" height="64" viewBox="0 0 64 64" fill="none" xmlns="http://www.w3.org/2000/svg">
<path d="M44.0002 38.0828H39.7814V38.6441C39.7814 40.8577 38.7272 43.0074 36.8037 44.6108C34.8771 46.2167 32.2451 47.1319 29.4837 47.1319H28.9252V50.8399H29.4837C33.3034 50.8399 36.9831 49.576 39.71 47.303C42.44 45.0274 44.0002 41.9161 44.0002 38.6441V38.0828Z" fill="white"/>
<path fill-rule="evenodd" clip-rule="evenodd" d="M32.3136 8.34259C31.6446 7.8858 30.7558 7.8858 30.0868 8.34259L30.0791 8.34789L30.065 8.35762L30.0196 8.38904C29.9803 8.41649 29.9242 8.45584 29.8526 8.50682C29.7095 8.60874 29.5041 8.75723 29.2453 8.95014C28.728 9.3358 27.9963 9.89984 27.1216 10.6251C25.3748 12.0733 23.0436 14.1762 20.7072 16.797C16.0829 21.9843 11.2002 29.4685 11.2002 38.0828C11.2002 43.262 13.3095 48.2272 17.0611 51.8866C20.8124 55.5457 25.8985 57.6 31.2002 57.6C36.5019 57.6 41.588 55.5457 45.3393 51.8866C49.0909 48.2272 51.2002 43.262 51.2002 38.0828C51.2002 29.4685 46.3175 21.9843 41.6931 16.797C39.3568 14.1762 37.0255 12.0733 35.2788 10.6251C34.4041 9.89984 33.6724 9.3358 33.155 8.95013C32.8963 8.75724 32.6909 8.60874 32.5478 8.50682C32.4762 8.45584 32.4191 8.41579 32.3797 8.38833L32.3338 8.35648L32.3201 8.34703L32.3136 8.34259ZM29.282 13.105C30.068 12.4534 30.7275 11.9431 31.2003 11.5889C31.6731 11.9431 32.3326 12.4534 33.1186 13.105C34.7724 14.4763 36.9761 16.4649 39.1762 18.9329C43.6097 23.9061 47.8645 30.6407 47.8645 38.0828C47.8645 42.3985 46.1068 46.5359 42.9808 49.5851C39.855 52.6341 35.6173 54.3456 31.2003 54.3456C26.7834 54.3456 22.5457 52.6341 19.4199 49.5851C16.2938 46.5359 14.5362 42.3985 14.5362 38.0828C14.5362 30.6407 18.791 23.9061 23.2245 18.9329C25.4246 16.4649 27.6282 14.4763 29.282 13.105Z" fill="white"/>
<path fill-rule="evenodd" clip-rule="evenodd" d="M44.9596 12.4943H44.6396V15.0252H44.9596C46.8482 15.0252 48.5794 16.0195 49.8486 17.6695C51.1181 19.3198 51.9124 21.6134 51.9124 24.1598V24.4798H54.0069V24.1598C54.0069 21.6134 54.8012 19.3198 56.0707 17.6695C57.3398 16.0195 59.0711 15.0252 60.9597 15.0252H61.2797V12.4943H60.9597C59.0711 12.4943 57.3398 11.5001 56.0707 9.85011C54.8012 8.19979 54.0069 5.9062 54.0069 3.35979V3.03979H51.9124V3.35979C51.9124 5.9062 51.1181 8.19979 49.8486 9.85011C48.5794 11.5001 46.8482 12.4943 44.9596 12.4943ZM52.9596 18.7041C53.8279 16.59 55.1833 14.8579 56.8545 13.7598C55.1834 12.6616 53.828 10.9295 52.9596 8.81548C52.0913 10.9295 50.7359 12.6616 49.0648 13.7598C50.7359 14.858 52.0913 16.5901 52.9596 18.7041Z" fill="white"/>
<path fill-rule="evenodd" clip-rule="evenodd" d="M1.98833 51.8571H1.6001V53.7427H1.98833C2.9467 53.7427 3.84357 54.2703 4.51402 55.1826C5.1846 56.095 5.61079 57.3736 5.61079 58.8028V59.1999H7.1894V58.8028C7.1894 57.3736 7.61559 56.095 8.28618 55.1826C8.95663 54.2703 9.8535 53.7427 10.8119 53.7427H11.2001V51.8571H10.8119C9.8535 51.8571 8.95663 51.3295 8.28618 50.4172C7.61559 49.5048 7.1894 48.2262 7.1894 46.797V46.3999H5.61079V46.797C5.61079 48.2262 5.1846 49.5048 4.51402 50.4172C3.84357 51.3295 2.9467 51.8571 1.98833 51.8571ZM6.4001 50.4826C6.84294 51.4284 7.45385 52.2272 8.18911 52.7999C7.45384 53.3725 6.84291 54.1713 6.40009 55.1172C5.95725 54.1713 5.34633 53.3726 4.61107 52.7999C5.34634 52.2272 5.95726 51.4284 6.4001 50.4826Z" fill="white"/>
</svg>
