<svg width="80" height="80" viewBox="0 0 80 80" fill="none" xmlns="http://www.w3.org/2000/svg">
<rect x="9" y="9" width="62" height="62" rx="1" stroke="white" stroke-width="2"/>
<rect x="15" y="36" width="50" height="26" stroke="white" stroke-width="2" stroke-linejoin="round"/>
<path d="M9 24L71 24" stroke="white" stroke-width="2" stroke-miterlimit="10"/>
<path d="M46 14H34V19H46V14Z" fill="white" stroke="white" stroke-width="2" stroke-linejoin="round"/>
<path d="M54 18C55.1046 18 56 17.1046 56 16C56 14.8954 55.1046 14 54 14C52.8954 14 52 14.8954 52 16C52 17.1046 52.8954 18 54 18Z" fill="white"/>
<path d="M62 18C63.1046 18 64 17.1046 64 16C64 14.8954 63.1046 14 62 14C60.8954 14 60 14.8954 60 16C60 17.1046 60.8954 18 62 18Z" fill="white"/>
<path d="M18 18C19.1046 18 20 17.1046 20 16C20 14.8954 19.1046 14 18 14C16.8954 14 16 14.8954 16 16C16 17.1046 16.8954 18 18 18Z" fill="white"/>
<path d="M26 18C27.1046 18 28 17.1046 28 16C28 14.8954 27.1046 14 26 14C24.8954 14 24 14.8954 24 16C24 17.1046 24.8954 18 26 18Z" fill="white"/>
<line x1="14" y1="31" x2="66" y2="31" stroke="white" stroke-width="2"/>
</svg>
