<svg width="121" height="121" viewBox="0 0 121 121" fill="none" xmlns="http://www.w3.org/2000/svg">
<path d="M50.3233 21.176H51.3233V20.176V15.5751C51.3233 15.1712 51.633 14.9182 51.9009 14.9182C52.0337 14.9182 52.1718 14.9748 52.2883 15.0971C52.4009 15.2155 52.4748 15.3823 52.4748 15.5751V20.176V21.176H53.4748H65.9924H66.9924V20.176V15.5751C66.9924 15.1681 67.3013 14.9182 67.5662 14.9182C67.7039 14.9182 67.8418 14.9758 67.9573 15.0971C68.07 15.2155 68.1438 15.3823 68.1438 15.5751V20.176V21.176H69.1438H81.2725C81.9549 21.176 82.6021 21.7835 82.6021 22.6228V26.0676C82.6021 26.9119 81.9539 27.5183 81.2725 27.5183H38.1946C37.5132 27.5183 36.865 26.9119 36.865 26.0676V22.6228C36.865 21.7835 37.5122 21.176 38.1946 21.176H50.3233Z" stroke="white" stroke-width="2"/>
<path d="M34.3125 35.4182C34.3125 33.2091 36.1034 31.4182 38.3125 31.4182H82.3125C84.5216 31.4182 86.3125 33.2091 86.3125 35.4182V103.418C86.3125 105.627 84.5216 107.418 82.3125 107.418H38.3125C36.1034 107.418 34.3125 105.627 34.3125 103.418V35.4182Z" stroke="white" stroke-width="2"/>
<circle cx="60.3125" cy="49.9182" r="9.5" stroke="white" stroke-width="2"/>
<path d="M52.3125 71.4182C52.3125 70.8659 52.7602 70.4182 53.3125 70.4182H68.8125C69.3648 70.4182 69.8125 70.8659 69.8125 71.4182V92.9182C69.8125 93.4705 69.3648 93.9182 68.8125 93.9182H53.3125C52.7602 93.9182 52.3125 93.4705 52.3125 92.9182V71.4182Z" stroke="white" stroke-width="2"/>
</svg>
