<svg width="80" height="80" viewBox="0 0 80 80" fill="none" xmlns="http://www.w3.org/2000/svg">
<path d="M16.449 70L20.0078 27.1855C20.1079 25.9807 19.1571 24.9476 17.9482 24.9476H17.4457C16.3043 24.9476 15.379 24.0223 15.379 22.8809V12.2028C15.379 11.0614 16.3043 10.1361 17.4457 10.1361H42.6115C43.3437 10.1361 44.0131 9.7227 44.341 9.06805V9.06805C44.6689 8.4134 45.3384 8 46.0705 8H59.2036C60.201 8 61.0561 8.71235 61.2363 9.69335L61.7317 12.391C61.8844 13.2222 62.6089 13.8257 63.454 13.8257V13.8257C64.4211 13.8257 65.2051 14.6097 65.2051 15.5768V19.5301C65.2051 20.4746 64.4394 21.2403 63.4949 21.2403V21.2403C62.6367 21.2403 61.9115 21.8763 61.7994 22.7271L61.162 27.5643C61.0266 28.5925 60.1501 29.361 59.1131 29.361H46.5015C45.5477 29.361 44.7177 28.7083 44.493 27.7813L44.189 26.5274C43.9643 25.6004 43.1344 24.9476 42.1805 24.9476H34.03C32.8886 24.9476 31.9633 25.8729 31.9633 27.0143V70M71.0167 70H7.9834" stroke="white" stroke-width="2.06667" stroke-linejoin="round"/>
<path d="M32 45H50.7536C51.2446 45 51.7185 45.1807 52.085 45.5075L56 49" stroke="white" stroke-width="2" stroke-linejoin="round"/>
<path d="M38 45.7931V40C38 38.8954 38.8954 38 40 38H66C67.1046 38 68 38.8954 68 40V51C68 57.0751 63.0751 62 57 62H49C42.9249 62 38 57.0472 38 50.972V50.972" stroke="white" stroke-width="2" stroke-linejoin="round"/>
</svg>
