<svg width="32" height="25" viewBox="0 0 32 25" fill="none" xmlns="http://www.w3.org/2000/svg">
<path d="M0 2C0 0.89543 0.895431 0 2 0H30C31.1046 0 32 0.895431 32 2V21C32 22.1046 31.1046 23 30 23H2C0.895431 23 0 22.1046 0 21V2Z" fill="white"/>
<path fill-rule="evenodd" clip-rule="evenodd" d="M23.5 5.8C23.5 5.91046 23.6007 6 23.725 6H27.775C27.8993 6 28 5.91046 28 5.8V4.7C28 4.58954 27.8993 4.5 27.775 4.5H25.75H23.725C23.6007 4.5 23.5 4.58954 23.5 4.7V5.8Z" fill="#2F2F2F"/>
<path fill-rule="evenodd" clip-rule="evenodd" d="M19 3.1H3C2.77909 3.1 2.6 3.27909 2.6 3.5V19.5C2.6 19.7209 2.77909 19.9 3 19.9H19C19.2209 19.9 19.4 19.7209 19.4 19.5V3.5C19.4 3.27909 19.2209 3.1 19 3.1ZM3 2.5C2.44772 2.5 2 2.94772 2 3.5V19.5C2 20.0523 2.44772 20.5 3 20.5H19C19.5523 20.5 20 20.0523 20 19.5V3.5C20 2.94772 19.5523 2.5 19 2.5H3Z" fill="#2F2F2F"/>
<path fill-rule="evenodd" clip-rule="evenodd" d="M29 3.1H22.5C22.2791 3.1 22.1 3.27909 22.1 3.5V19.5C22.1 19.7209 22.2791 19.9 22.5 19.9H29C29.2209 19.9 29.4 19.7209 29.4 19.5V3.5C29.4 3.27909 29.2209 3.1 29 3.1ZM22.5 2.5C21.9477 2.5 21.5 2.94772 21.5 3.5V19.5C21.5 20.0523 21.9477 20.5 22.5 20.5H29C29.5523 20.5 30 20.0523 30 19.5V3.5C30 2.94772 29.5523 2.5 29 2.5H22.5Z" fill="#2F2F2F"/>
<path d="M4 22.5H9V24C9 24.2761 8.77614 24.5 8.5 24.5H4.5C4.22386 24.5 4 24.2761 4 24V22.5Z" fill="white"/>
<path d="M23 22.5H28V24C28 24.2761 27.7761 24.5 27.5 24.5H23.5C23.2239 24.5 23 24.2761 23 24V22.5Z" fill="white"/>
<path fill-rule="evenodd" clip-rule="evenodd" d="M19 11.5C19 15.9181 15.4181 19.5 11 19.5C6.58122 19.5 3 15.9181 3 11.5C3 7.08122 6.58122 3.5 11 3.5C15.4181 3.5 19 7.08122 19 11.5Z" fill="#2F2F2F"/>
<path fill-rule="evenodd" clip-rule="evenodd" d="M8.5 12C8.5 10.771 9.38606 9.7496 10.5544 9.53956C10.4442 9.16266 10.357 8.75899 10.357 8.42546C10.357 8.13126 10.452 7.78249 10.5515 7.41683C10.7584 6.65705 10.9851 5.82441 10.4209 5.25713C9.64913 4.48204 7.3986 5.58039 6.04773 6.93864C4.69779 8.29597 3.92599 10.365 5.01929 11.4643C5.78284 12.232 7.55009 12.4322 8.54666 12.4831C8.51605 12.3268 8.5 12.1653 8.5 12ZM8.16209 14.1982C8.44103 14.0371 8.7362 13.7748 9.00167 13.5024C9.45782 14.1082 10.183 14.5 11 14.5C11.6497 14.5 12.2416 14.2519 12.6863 13.8454C13.1388 14.7563 13.7687 16.2847 13.4919 17.2845C13.076 18.787 10.8783 19.1646 9.01479 18.6818C7.15 18.1986 5.06298 16.8048 5.35578 15.7446C5.57042 14.9692 6.41289 14.7446 7.18162 14.5396C7.55159 14.441 7.90448 14.3469 8.16209 14.1982ZM13.5 12C13.5 12.4677 13.3714 12.9054 13.1478 13.2799C13.5343 13.3732 13.9346 13.5007 14.2275 13.6698C14.4823 13.8169 14.7368 14.0736 15.0037 14.3426C15.5583 14.9017 16.166 15.5143 16.9394 15.3094C17.9965 15.0285 18.1706 12.5303 17.6697 10.6813C17.1692 8.83357 15.7633 7.13065 14.2646 7.52784C13.3741 7.76385 12.4761 8.83452 11.8939 9.66459C12.833 10.0243 13.5 10.934 13.5 12ZM11.0008 13.5C11.8282 13.5 12.5 12.8287 12.5 12C12.5 11.1713 11.8282 10.5 11.0008 10.5C10.1718 10.5 9.5 11.1713 9.5 12C9.5 12.8287 10.1718 13.5 11.0008 13.5Z" fill="white"/>
</svg>
