<svg width="80" height="80" viewBox="0 0 80 80" fill="none" xmlns="http://www.w3.org/2000/svg">
<rect x="5" y="13" width="70" height="50" rx="4" stroke="white" stroke-width="2"/>
<rect x="55" y="17" width="16" height="42" rx="2" stroke="white" stroke-width="2"/>
<rect x="60" y="22" width="6" height="3" fill="white" stroke="white" stroke-width="2" stroke-linejoin="round"/>
<path d="M29.194 33.0084L29.2487 34.0069L30.5307 33.9366L30.1487 32.7109L29.194 33.0084ZM24.0545 39.2772L23.9859 40.2748L25.2176 40.3595L25.0446 39.1371L24.0545 39.2772ZM16.6665 37.0206L17.3755 36.3154H17.3755L16.6665 37.0206ZM18.9766 26.8547L19.6857 27.5599L18.9766 26.8547ZM28.8 23.0776L29.5091 22.3724L29.5087 22.372L28.8 23.0776ZM29.0934 27.9289L30.0421 28.2451L30.0509 28.2186L30.0583 28.1916L29.0934 27.9289ZM29.0934 27.9289L28.1447 27.6127L28.1359 27.6392L28.1285 27.6662L29.0934 27.9289ZM23.7262 43.1617L24.2262 44.0277L23.7262 43.1617ZM25.2351 41.9731L26.0102 41.3412L25.3254 40.5013L24.5432 41.2512L25.2351 41.9731ZM21.5238 43.9287L21.2662 42.9624L21.2366 42.9703L21.2076 42.98L21.5238 43.9287ZM21.5238 43.9287L21.7814 44.8949L21.8109 44.887L21.84 44.8773L21.5238 43.9287ZM17.4224 46.6353L16.4587 46.3685L16.4585 46.3691L17.4224 46.6353ZM25.6416 53.2331L25.8924 52.2651L25.6416 53.2331ZM35.6984 50.0943L34.7346 49.8275H34.7346L35.6984 50.0943ZM33.7174 42.0298L34.6073 41.5737L33.9194 40.2317L32.9509 41.3876L33.7174 42.0298ZM34.4091 40.9819L33.5171 40.5299L32.9294 41.6896L34.2011 41.96L34.4091 40.9819ZM31.7611 33.4849L30.9306 32.9278L30.2721 33.9097L31.3496 34.3962L31.7611 33.4849ZM37.434 28.1782L37.1778 27.2116L37.434 28.1782ZM45.0828 35.2618L44.1176 35.5233L45.0828 35.2618ZM43.4422 45.6577L43.6984 46.6244L43.699 46.6242L43.4422 45.6577ZM39.0942 43.4861L39.8042 42.7819L39.8013 42.779L39.0942 43.4861ZM39.0942 43.4861L38.3842 44.1904L38.3871 44.1932L39.0942 43.4861ZM37.3506 41.9749L37.8506 41.1089V41.1089L37.3506 41.9749ZM25 38.5C25 36.0982 26.8801 34.1366 29.2487 34.0069L29.1393 32.0099C25.716 32.1974 23 35.0304 23 38.5H25ZM25.0446 39.1371C25.0153 38.9295 25 38.7168 25 38.5H23C23 38.8108 23.0219 39.1171 23.0643 39.4172L25.0446 39.1371ZM24.1231 38.2795C23.0085 38.2028 21.6235 38.043 20.3418 37.7183C19.0285 37.3856 17.9724 36.9156 17.3755 36.3154L15.9574 37.7258C16.9461 38.7198 18.4389 39.2994 19.8506 39.657C21.2939 40.0226 22.8102 40.1939 23.9859 40.2748L24.1231 38.2795ZM17.3755 36.3154C16.4959 35.431 16.2746 34.0798 16.7282 32.4184C17.1801 30.7628 18.2682 28.9851 19.6857 27.5599L18.2676 26.1496C16.6527 27.7733 15.3578 29.8439 14.7988 31.8917C14.2414 33.9337 14.3812 36.1409 15.9574 37.7258L17.3755 36.3154ZM19.6857 27.5599C21.1167 26.1211 23.0313 24.818 24.7631 24.0912C25.6309 23.727 26.3993 23.5302 27.005 23.5032C27.615 23.476 27.9309 23.622 28.0914 23.7832L29.5087 22.372C28.8023 21.6627 27.8362 21.4641 26.9159 21.5052C25.9913 21.5464 24.9812 21.8307 23.9891 22.247C22.0013 23.0813 19.871 24.5374 18.2676 26.1496L19.6857 27.5599ZM28.091 23.7828C28.471 24.1648 28.618 24.6466 28.5968 25.309C28.5742 26.0099 28.3681 26.7863 28.1285 27.6662L30.0583 28.1916C30.2834 27.3648 30.5643 26.3526 30.5957 25.3732C30.6284 24.3552 30.3964 23.2646 29.5091 22.3724L28.091 23.7828ZM28.1447 27.6127L28.1447 27.6127L30.0421 28.2451L30.0421 28.2451L28.1447 27.6127ZM28.1285 27.6662C27.9167 28.4441 27.6564 29.3712 27.6564 30.1945H29.6564C29.6564 29.6962 29.8228 29.0564 30.0583 28.1916L28.1285 27.6662ZM27.6564 30.1945C27.6564 31.1936 27.9425 32.3533 28.2393 33.3059L30.1487 32.7109C29.8654 31.8015 29.6564 30.8794 29.6564 30.1945H27.6564ZM24.2262 44.0277C24.823 43.6831 25.4096 43.191 25.9271 42.695L24.5432 41.2512C24.0775 41.6976 23.6237 42.0661 23.2262 42.2956L24.2262 44.0277ZM21.7814 44.8949C22.5695 44.6848 23.5083 44.4422 24.2262 44.0277L23.2262 42.2956C22.7867 42.5493 22.1401 42.7294 21.2662 42.9624L21.7814 44.8949ZM21.84 44.8773L21.84 44.8773L21.2076 42.98L21.2075 42.98L21.84 44.8773ZM18.3862 46.9021C18.5316 46.3766 18.8835 46.0018 19.4786 45.6829C20.1063 45.3466 20.8918 45.1321 21.7814 44.8949L21.2662 42.9624C20.429 43.1856 19.4048 43.4535 18.5341 43.92C17.6307 44.404 16.7953 45.1523 16.4587 46.3685L18.3862 46.9021ZM25.8924 52.2651C23.9163 51.753 21.8181 50.7535 20.3164 49.6217C19.5639 49.0545 19.0083 48.4893 18.6827 47.9798C18.3555 47.4678 18.3253 47.1225 18.3863 46.9015L16.4585 46.3691C16.1907 47.3389 16.4998 48.2781 16.9975 49.0568C17.4968 49.8381 18.2517 50.57 19.1126 51.2188C20.8378 52.5191 23.178 53.6277 25.3907 54.2011L25.8924 52.2651ZM34.7346 49.8275C34.3985 51.0419 33.3192 51.9212 31.6324 52.3697C29.9528 52.8164 27.8497 52.7722 25.8924 52.2651L25.3907 54.2011C27.6194 54.7786 30.0775 54.8527 32.1463 54.3026C34.2079 53.7544 36.064 52.5219 36.6622 50.3611L34.7346 49.8275ZM32.8275 42.486C33.3232 43.4531 33.954 44.8169 34.38 46.2087C34.8177 47.6389 34.984 48.9268 34.7346 49.8275L36.6622 50.3611C37.0703 48.8866 36.7551 47.1352 36.2924 45.6234C35.818 44.0733 35.1295 42.5924 34.6073 41.5737L32.8275 42.486ZM32.9509 41.3876C32.1236 42.3749 30.8848 43 29.5 43V45C31.5017 45 33.2931 44.0932 34.4839 42.6721L32.9509 41.3876ZM29.5 43C28.0925 43 26.8369 42.3551 26.0102 41.3412L24.4601 42.605C25.6502 44.0647 27.466 45 29.5 45V43ZM34 38.5C34 39.2322 33.8257 39.921 33.5171 40.5299L35.3011 41.4339C35.7484 40.5514 36 39.5536 36 38.5H34ZM31.3496 34.3962C32.9141 35.1028 34 36.6753 34 38.5H36C36 35.8605 34.4271 33.5915 32.1727 32.5735L31.3496 34.3962ZM32.5916 34.0419C33.2136 33.1145 34.0474 31.9868 34.9745 31.0305C35.9246 30.0505 36.8663 29.3632 37.6902 29.1448L37.1778 27.2116C35.8143 27.573 34.5585 28.5863 33.5386 29.6384C32.4956 30.7142 31.5866 31.9499 30.9306 32.9278L32.5916 34.0419ZM37.6902 29.1448C38.8959 28.8253 40.1767 29.3093 41.3888 30.5328C42.5966 31.752 43.5921 33.5832 44.1176 35.5233L46.048 35.0004C45.4493 32.7899 44.3036 30.6332 42.8096 29.1252C41.3199 27.6215 39.3385 26.639 37.1778 27.2116L37.6902 29.1448ZM44.1176 35.5233C44.6482 37.482 44.8193 39.7916 44.5829 41.6548C44.4644 42.5884 44.2506 43.3523 43.9711 43.8904C43.6897 44.4323 43.4053 44.6328 43.1855 44.6912L43.699 46.6242C44.6665 46.3672 45.3215 45.6297 45.746 44.8122C46.1726 43.9909 46.4315 42.974 46.567 41.9066C46.8384 39.7679 46.6425 37.1951 46.048 35.0004L44.1176 35.5233ZM43.1861 44.6911C42.6652 44.8291 42.1745 44.7156 41.6114 44.366C41.0156 43.996 40.4464 43.4293 39.8042 42.7819L38.3842 44.1904C38.9877 44.7987 39.7238 45.5481 40.5563 46.065C41.4216 46.6023 42.4821 46.9467 43.6984 46.6244L43.1861 44.6911ZM39.8013 42.779L39.8013 42.779L38.3871 44.1932L38.3871 44.1932L39.8013 42.779ZM39.8042 42.7819C39.2363 42.2094 38.5636 41.5205 37.8506 41.1089L36.8506 42.8409C37.2821 43.0901 37.7531 43.5541 38.3842 44.1904L39.8042 42.7819ZM37.8506 41.1089C36.9169 40.5698 35.6491 40.2232 34.6171 40.0038L34.2011 41.96C35.1978 42.1719 36.2046 42.4679 36.8506 42.8409L37.8506 41.1089Z" fill="white"/>
<path d="M35 38.5C35 41.5385 32.5368 44 29.503 44C26.4632 44 24 41.5385 24 38.5C24 35.4615 26.4632 33 29.503 33C32.5368 33 35 35.4615 35 38.5" stroke="white" stroke-width="2"/>
<path d="M14 63H25V66C25 67.1046 24.1046 68 23 68H16C14.8954 68 14 67.1046 14 66V63Z" stroke="white" stroke-width="2"/>
<path d="M55 63H66V66C66 67.1046 65.1046 68 64 68H57C55.8954 68 55 67.1046 55 66V63Z" stroke="white" stroke-width="2"/>
<circle cx="30" cy="38" r="21" stroke="white" stroke-width="2"/>
</svg>
