<svg width="80" height="80" viewBox="0 0 80 80" fill="none" xmlns="http://www.w3.org/2000/svg">
<path d="M34.5344 30.508C34.5344 19.7331 22.5281 11.3526 22.5281 11.3526C22.5281 11.3526 10.5217 19.7331 10.5217 30.508C10.5217 33.6832 11.7867 36.7284 14.0383 38.9736C16.2899 41.2188 19.3438 42.4802 22.5281 42.4802C25.7124 42.4802 28.7662 41.2188 31.0179 38.9736C33.2695 36.7284 34.5344 33.6832 34.5344 30.508Z" stroke="white" stroke-width="2" stroke-linecap="square" stroke-linejoin="round"/>
<path d="M29.6429 30.4738C29.6429 32.3608 28.8933 34.1705 27.559 35.5048C26.2247 36.8391 24.415 37.5887 22.528 37.5887" stroke="white" stroke-width="2"/>
<rect x="9" y="57" width="62" height="12" stroke="white" stroke-width="2" stroke-linecap="square" stroke-linejoin="round"/>
<path fill-rule="evenodd" clip-rule="evenodd" d="M72.0228 32.492C72.5009 32.216 72.6663 31.604 72.3765 31.1342C69.5604 26.5673 65.6032 22.6135 60.6308 19.7427C55.6584 16.8718 50.2555 15.4217 44.8923 15.2664C44.3405 15.2504 43.8932 15.6996 43.8932 16.2516C43.8932 16.8043 44.3417 17.2506 44.8942 17.2677C49.9167 17.4231 54.9745 18.7864 59.6308 21.4748C64.2871 24.163 67.9966 27.8614 70.6424 32.1332C70.9334 32.6031 71.5441 32.7684 72.0228 32.492Z" fill="white"/>
<path fill-rule="evenodd" clip-rule="evenodd" d="M54.9129 42.3704C55.391 42.0944 55.558 41.4809 55.2483 41.024C54.1213 39.3613 52.6102 37.9213 50.7539 36.8496C48.8976 35.7778 46.8949 35.1891 44.8914 35.0445C44.3409 35.0047 43.8931 35.4562 43.8931 36.0082C43.8931 36.561 44.3422 37.0044 44.893 37.0512C46.5553 37.1924 48.2136 37.6923 49.7539 38.5817C51.2942 39.4709 52.5563 40.657 53.5097 42.026C53.8256 42.4796 54.4342 42.6468 54.9129 42.3704Z" fill="white"/>
<path fill-rule="evenodd" clip-rule="evenodd" d="M63.1269 37.6279C63.6028 37.3532 63.7696 36.7447 63.4785 36.2787C61.4865 33.0908 58.7063 30.331 55.2238 28.3204C51.9609 26.4365 48.4366 25.4154 44.9152 25.1863C44.3549 25.1498 43.893 25.6037 43.893 26.1652C43.893 26.7088 44.3271 27.1507 44.8695 27.1881C48.0657 27.4089 51.2623 28.3426 54.2238 30.0524C57.3862 31.8783 59.9163 34.3788 61.7372 37.2672C62.0332 37.7369 62.6461 37.9055 63.1269 37.6279Z" fill="white"/>
</svg>
