<svg width="125" height="125" viewBox="0 0 125 125" fill="none" xmlns="http://www.w3.org/2000/svg">
<path d="M112.5 104.688V103.688C111.948 103.688 111.5 104.135 111.5 104.688H112.5ZM96.875 104.688H97.875C97.875 104.135 97.4273 103.688 96.875 103.688V104.688ZM28.125 104.688V103.688C27.5727 103.688 27.125 104.135 27.125 104.688H28.125ZM12.5 104.688H13.5C13.5 104.135 13.0523 103.688 12.5 103.688V104.688ZM9.8125 19.3125C8.15565 19.3125 6.8125 20.6556 6.8125 22.3125H8.8125C8.8125 21.7602 9.26021 21.3125 9.8125 21.3125V19.3125ZM115.188 19.3125H9.8125V21.3125H115.188V19.3125ZM118.188 22.3125C118.188 20.6556 116.844 19.3125 115.188 19.3125V21.3125C115.74 21.3125 116.188 21.7602 116.188 22.3125H118.188ZM118.188 102.688V22.3125H116.188V102.688H118.188ZM115.188 105.688C116.844 105.688 118.188 104.344 118.188 102.688H116.188C116.188 103.24 115.74 103.688 115.188 103.688V105.688ZM112.5 105.688H115.188V103.688H112.5V105.688ZM111.5 104.688V107.375H113.5V104.688H111.5ZM111.5 107.375C111.5 107.927 111.052 108.375 110.5 108.375V110.375C112.157 110.375 113.5 109.032 113.5 107.375H111.5ZM110.5 108.375H98.875V110.375H110.5V108.375ZM98.875 108.375C98.3227 108.375 97.875 107.927 97.875 107.375H95.875C95.875 109.032 97.2181 110.375 98.875 110.375V108.375ZM97.875 107.375V104.688H95.875V107.375H97.875ZM28.125 105.688H96.875V103.688H28.125V105.688ZM29.125 107.375V104.688H27.125V107.375H29.125ZM26.125 110.375C27.7819 110.375 29.125 109.032 29.125 107.375H27.125C27.125 107.927 26.6773 108.375 26.125 108.375V110.375ZM14.5 110.375H26.125V108.375H14.5V110.375ZM11.5 107.375C11.5 109.032 12.8431 110.375 14.5 110.375V108.375C13.9477 108.375 13.5 107.927 13.5 107.375H11.5ZM11.5 104.688V107.375H13.5V104.688H11.5ZM9.8125 105.688H12.5V103.688H9.8125V105.688ZM6.8125 102.688C6.8125 104.344 8.15564 105.688 9.8125 105.688V103.688C9.26021 103.688 8.8125 103.24 8.8125 102.688H6.8125ZM6.8125 22.3125V102.688H8.8125V22.3125H6.8125Z" fill="white"/>
<rect x="18.75" y="56.25" width="87.5" height="37.5" rx="2" stroke="white" stroke-width="2"/>
<rect x="50" y="29.6875" width="25" height="9.375" fill="white" stroke="white" stroke-width="2" stroke-linecap="square" stroke-linejoin="round"/>
<circle cx="20.3125" cy="34.375" r="3.125" fill="white"/>
<circle cx="32.8125" cy="34.375" r="3.125" fill="white"/>
<circle cx="88.0801" cy="34.375" r="4.6875" fill="white"/>
<circle cx="102.545" cy="34.375" r="4.6875" fill="white"/>
<path d="M17.1875 48.4375L107.812 48.4375" stroke="white" stroke-width="2"/>
</svg>
