<svg width="80" height="80" viewBox="0 0 80 80" fill="none" xmlns="http://www.w3.org/2000/svg">
<rect x="5" y="13" width="70" height="54" rx="2" stroke="white" stroke-width="2"/>
<path d="M28 63C29.6569 63 31 61.6569 31 60C31 58.3431 29.6569 57 28 57C26.3431 57 25 58.3431 25 60C25 61.6569 26.3431 63 28 63Z" fill="white"/>
<path d="M40 63C41.6569 63 43 61.6569 43 60C43 58.3431 41.6569 57 40 57C38.3431 57 37 58.3431 37 60C37 61.6569 38.3431 63 40 63Z" fill="white"/>
<path d="M52 63C53.6569 63 55 61.6569 55 60C55 58.3431 53.6569 57 52 57C50.3431 57 49 58.3431 49 60C49 61.6569 50.3431 63 52 63Z" fill="white"/>
<circle cx="58" cy="24" r="6" stroke="white" stroke-width="2"/>
<circle cx="58" cy="43" r="9" stroke="white" stroke-width="2"/>
<circle cx="27" cy="34" r="14" stroke="white" stroke-width="2"/>
</svg>
