<svg width="46" height="55" viewBox="0 0 46 55" fill="none" xmlns="http://www.w3.org/2000/svg">
<path d="M36.7852 44.3705C37.6233 44.3705 38.8007 44.3106 39.6941 44.0002C40.5874 43.6897 41.4151 43.1396 42.1188 42.3886C42.8224 41.6376 43.3849 40.704 43.7665 39.6536C44.1481 38.6032 44.3396 37.4616 44.3275 36.3093C44.3154 35.157 44.1 34.022 43.6964 32.9843C43.2928 31.9467 42.7109 31.0316 41.9918 30.3037C41.2726 29.5757 40.4336 29.0526 39.534 28.7712C38.6344 28.4899 38.0004 28.5327 37.1623 28.5327" stroke="white" stroke-width="1.21512" stroke-linecap="round" stroke-linejoin="round"/>
<path d="M1.98355 25.3545C1.97171 25.0109 2.247 24.726 2.59075 24.726H36.2812C36.625 24.726 36.9003 25.0109 36.8884 25.3545L36.231 44.4198C36.0392 49.9822 31.4743 54.3924 25.9086 54.3924H12.9634C7.39763 54.3924 2.83279 49.9822 2.64098 44.4198L1.98355 25.3545Z" stroke="white" stroke-width="1.21512" stroke-linejoin="round"/>
<path d="M2.54395 44.2872H35.8496" stroke="white" stroke-width="0.789829"/>
<path d="M14.2129 8.87989L14.2128 8.87986L14.2129 8.87989ZM14.2129 8.87989L14.2129 8.87991L14.2129 8.87989ZM21.1572 5.39609L21.1571 5.39595C20.3623 4.07813 19.6317 2.62696 19.1429 1.60636C19.1406 1.60164 19.14 1.60126 19.1375 1.59987L19.1372 1.5997C19.1315 1.59647 19.1176 1.59127 19.0972 1.59162C19.0768 1.59197 19.0616 1.59769 19.0539 1.60234C19.0489 1.60536 19.0468 1.60749 19.044 1.61367C18.5658 2.6699 17.8185 4.18078 16.9123 5.53101C15.5204 7.60609 14.8805 8.8959 14.7742 9.11462L21.1572 5.39609ZM21.1572 5.39609C22.2389 7.18844 22.9986 8.49058 23.2759 8.97483C23.2797 8.98148 23.2836 8.98806 23.2877 8.99455L23.2899 8.99848L23.2902 8.99912C23.2928 9.00374 23.2981 9.01337 23.3041 9.02364C23.3072 9.02892 23.311 9.03533 23.3155 9.04255C23.3253 9.05992 23.3348 9.07644 23.343 9.09054L23.3438 9.09193C23.3536 9.10886 23.3615 9.12258 23.3687 9.13543C23.3714 9.14038 23.3738 9.14482 23.3759 9.14863C23.381 9.15913 23.3864 9.16951 23.3921 9.17974C23.7773 9.87353 23.9946 10.6722 23.9946 11.5271C23.9946 14.2262 21.793 16.4202 19.0696 16.4202C16.3431 16.4202 14.1417 14.226 14.1417 11.5271C14.1417 10.6735 14.3614 9.87374 14.7441 9.17761L21.1572 5.39609ZM14.82 8.88226C14.82 8.88322 14.82 8.88564 14.8199 8.88914C14.82 8.88678 14.82 8.88441 14.82 8.88205V8.88226Z" stroke="white" stroke-width="1.21512" stroke-linejoin="round"/>
<path d="M16.4395 11.6201C16.4395 11.6201 16.4395 13.5172 18.7635 13.9442" stroke="white" stroke-width="0.729073" stroke-linecap="round" stroke-linejoin="round"/>
</svg>
