<svg width="121" height="121" viewBox="0 0 121 121" fill="none" xmlns="http://www.w3.org/2000/svg">
<path fill-rule="evenodd" clip-rule="evenodd" d="M76.3845 28.1525C75.3003 23.554 73.43 18.9776 72.4813 16.7668C72.1289 15.9488 71.1802 15.4182 70.1231 15.4182H50.119C49.0618 15.4182 48.1131 15.9488 47.7608 16.7668C46.785 18.9776 44.9418 23.554 43.8304 28.1525C42.4455 34.0675 42.3237 39.9825 42.3134 40.7927C42.3126 40.8574 42.3214 40.9183 42.339 40.9805V40.9805C42.4203 41.2676 42.6759 41.4703 42.974 41.4828C47.5477 41.6744 53.847 41.8595 60.121 41.8595C66.4211 41.8595 72.6961 41.6744 77.268 41.4828C77.5662 41.4703 77.8218 41.2676 77.903 40.9805V40.9805C77.9206 40.9183 77.9294 40.8574 77.9286 40.7927C77.9182 39.9825 77.7946 34.0675 76.3845 28.1525Z" stroke="white" stroke-width="2" stroke-miterlimit="10"/>
<path fill-rule="evenodd" clip-rule="evenodd" d="M62.9935 35.4467C62.9935 35.8588 62.6787 36.1936 62.259 36.1936H58.0095C57.5898 36.1936 57.2488 35.8588 57.2488 35.4467V34.0817C57.2488 33.6954 57.5898 33.3606 58.0095 33.3606H62.259C62.6787 33.3606 62.9935 33.6954 62.9935 34.0817V35.4467Z" fill="white"/>
<path fill-rule="evenodd" clip-rule="evenodd" d="M70.1845 24.0485H50.4179C50.0086 24.0485 49.7197 23.7127 49.8401 23.3769L50.9716 19.8095C51.0679 19.3898 51.4772 19.1169 51.9347 19.1169H68.6677C69.1492 19.1169 69.5345 19.3898 69.6548 19.7885L70.7864 23.3559C70.9068 23.6917 70.5938 24.0485 70.1845 24.0485Z" stroke="white" stroke-miterlimit="10"/>
<path fill-rule="evenodd" clip-rule="evenodd" d="M76.5646 46.5374C77.2404 46.5106 77.7495 47.1468 77.5729 47.7998L75.3854 55.8902C74.9751 57.3806 74.7563 58.9154 74.7563 60.428V103.782C74.7563 105.517 73.0329 106.918 70.8991 106.918H49.3429C47.2092 106.918 45.4584 105.517 45.4584 103.782V60.428C45.4584 58.9154 45.2669 57.3806 44.8566 55.8902L42.6691 47.7998C42.4925 47.1468 43.0016 46.5106 43.6775 46.5374C48.2054 46.7171 54.1744 46.8814 60.121 46.8814C66.0921 46.8814 72.0407 46.7171 76.5646 46.5374Z" stroke="white" stroke-width="2" stroke-miterlimit="10"/>
</svg>
