<svg width="64" height="64" viewBox="0 0 64 64" fill="none" xmlns="http://www.w3.org/2000/svg">
<path fill-rule="evenodd" clip-rule="evenodd" d="M32.9213 3.49173L32.0001 4.79995L31.0789 3.49173C31.6314 3.10269 32.3688 3.10269 32.9213 3.49173ZM32.0001 6.79728C31.4553 7.21807 30.6955 7.82443 29.7899 8.59872C27.8844 10.228 25.3454 12.5908 22.8105 15.5232C17.7024 21.4324 12.8001 29.4343 12.8001 38.2769C12.8001 43.4047 14.8252 48.3206 18.427 51.9437C22.0284 55.5664 26.911 57.6 32.0001 57.6C37.0892 57.6 41.9718 55.5664 45.5732 51.9437C49.175 48.3206 51.2001 43.4047 51.2001 38.2769C51.2001 29.4343 46.2978 21.4324 41.1897 15.5232C38.6547 12.5908 36.1158 10.228 34.2103 8.59872C33.3047 7.82443 32.5449 7.21807 32.0001 6.79728ZM31.0789 3.49173C31.0795 3.49135 31.0789 3.49173 32.0001 4.79995C32.9213 3.49173 32.9207 3.49135 32.9213 3.49173L32.9282 3.4966L32.9426 3.50684L32.9936 3.54331C33.0372 3.57469 33.1 3.62016 33.1807 3.67939C33.342 3.79785 33.5749 3.97143 33.869 4.1976C34.4572 4.64981 35.2915 5.31293 36.2899 6.16656C38.2844 7.87193 40.9454 10.3475 43.6105 13.4305C48.9024 19.5521 54.4001 28.2887 54.4001 38.2769C54.4001 44.2473 52.0424 49.9751 47.8426 54.1998C43.6425 58.4247 37.944 60.8 32.0001 60.8C26.0562 60.8 20.3577 58.4247 16.1576 54.1998C11.9578 49.9751 9.6001 44.2473 9.6001 38.2769C9.6001 28.2887 15.0978 19.5521 20.3897 13.4305C23.0547 10.3475 25.7158 7.87193 27.7103 6.16656C28.7087 5.31293 29.5429 4.64981 30.1311 4.1976C30.4253 3.97143 30.6582 3.79785 30.8195 3.67939C30.9002 3.62016 30.963 3.57469 31.0066 3.54331L31.0576 3.50684L31.072 3.4966L31.0789 3.49173Z" fill="white"/>
<path fill-rule="evenodd" clip-rule="evenodd" d="M39.9196 46.3195C42.02 44.2191 43.2 41.3703 43.2 38.3999H46.4C46.4 42.219 44.8829 45.8817 42.1823 48.5822C39.4818 51.2828 35.8191 52.7999 32 52.7999V49.5999C34.9704 49.5999 37.8192 48.4199 39.9196 46.3195Z" fill="white"/>
</svg>
