<svg width="26" height="13" viewBox="0 0 26 13" fill="none" xmlns="http://www.w3.org/2000/svg">
<rect y="1" width="26" height="10" rx="4" fill="#8B8B8B"/>
<path d="M3.33516 3.44H5.45516C6.02582 3.44 6.46849 3.57867 6.78316 3.856C7.09782 4.13333 7.25516 4.48533 7.25516 4.912C7.25516 5.536 6.89516 5.94667 6.17516 6.144C6.53782 6.20267 6.82849 6.36533 7.04716 6.632C7.27116 6.89333 7.38316 7.19467 7.38316 7.536C7.38316 7.96267 7.21782 8.31467 6.88716 8.592C6.55649 8.864 6.11382 9 5.55916 9H3.33516V3.44ZM4.24716 4.152V5.8H5.37516C5.67382 5.8 5.90582 5.728 6.07116 5.584C6.24182 5.44 6.32716 5.24 6.32716 4.984C6.32716 4.72267 6.24182 4.52 6.07116 4.376C5.90582 4.22667 5.67382 4.152 5.37516 4.152H4.24716ZM4.24716 8.288H5.47916C5.78849 8.288 6.03116 8.21067 6.20716 8.056C6.38316 7.90133 6.47116 7.688 6.47116 7.416C6.47116 7.13867 6.37782 6.92 6.19116 6.76C6.00449 6.59467 5.75649 6.512 5.44716 6.512H4.24716V8.288ZM11.7462 3.432V4.144H9.58622V5.832H11.5062V6.536H9.58622V8.288H11.7462V9H8.67422V3.432H11.7462ZM12.8815 4.152V3.44H16.7615V4.152H15.2815V9H14.3695V4.152H12.8815ZM21.7372 9L21.3372 7.864H19.0092L18.6092 9H17.6572L19.6492 3.432H20.7052L22.6972 9H21.7372ZM19.2572 7.152H21.0892L20.1772 4.536L19.2572 7.152Z" fill="black"/>
</svg>
