<svg width="20" height="20" viewBox="0 0 20 20" fill="none" xmlns="http://www.w3.org/2000/svg">
<path d="M19.4141 1.64062H0.585938C0.262299 1.64062 0 1.90292 0 2.22656V17.7518C0 18.0754 0.262299 18.3377 0.585938 18.3377H19.4141C19.7377 18.3377 20 18.0754 20 17.7518V2.22656C20 1.90292 19.7377 1.64062 19.4141 1.64062ZM6.31104 16.1456V17.1658H4.34494V16.1456H6.31104ZM7.48291 16.1456H9.44901V17.1658H7.48291V16.1456ZM10.6209 16.1456H12.5871V17.1658H10.6209V16.1456ZM13.759 16.1456H15.7251V17.1658H13.759V16.1456ZM1.17188 14.9738V5.00458H18.8281V14.9738H1.17188ZM13.759 3.8327V2.8125H15.7251V3.8327H13.759ZM12.5871 3.8327H10.6209V2.8125H12.5871V3.8327ZM9.44901 3.8327H7.48291V2.8125H9.44901V3.8327ZM6.31104 3.8327H4.34494V2.8125H6.31104V3.8327ZM18.8281 3.8327H16.897V2.8125H18.8281V3.8327ZM3.17307 2.8125V3.8327H1.17188V2.8125H3.17307ZM1.17188 16.1456H3.17307V17.1658H1.17188V16.1456ZM16.897 17.1658V16.1456H18.8281V17.1658H16.897Z" fill="white"/>
<path d="M12.1669 9.38553C12.151 9.37393 12.1344 9.36309 12.1173 9.35318L8.76465 7.39608C8.52173 7.23724 8.20251 7.21924 7.94006 7.3529C7.68158 7.48428 7.52106 7.74078 7.52106 8.02215V11.9563C7.52106 12.2377 7.68158 12.494 7.94006 12.6256C8.05756 12.6854 8.18649 12.7148 8.31482 12.7148C8.47305 12.7148 8.63052 12.6701 8.76465 12.5822L12.1173 10.6253C12.1344 10.6154 12.151 10.6045 12.1669 10.593C12.3651 10.4485 12.4789 10.2286 12.4789 9.98932C12.4789 9.75006 12.3651 9.52987 12.1669 9.38553ZM8.69308 11.2671V8.71124L10.8824 9.98916L8.69308 11.2671Z" fill="white"/>
</svg>
