<svg width="18" height="21" viewBox="0 0 18 21" fill="none" xmlns="http://www.w3.org/2000/svg">
<path fill-rule="evenodd" clip-rule="evenodd" d="M17.547 11.7247C17.547 16.4203 13.7209 20.3334 8.93829 20.3334C4.15568 20.3334 0.32959 16.5073 0.32959 11.7247C0.32959 6.94206 4.15568 3.11597 8.93829 3.11597C13.7209 3.11597 17.547 7.02901 17.547 11.7247Z" fill="white"/>
<path fill-rule="evenodd" clip-rule="evenodd" d="M13.1127 8.42049L9.63441 11.8987C9.28659 12.2466 8.67789 12.2466 8.24311 11.8987C7.80833 11.5509 7.89528 10.9422 8.24311 10.5074L11.7214 7.02918C12.0692 6.68135 12.6779 6.68135 13.1127 7.02918C13.4605 7.46396 13.4605 8.07266 13.1127 8.42049Z" fill="black"/>
<path fill-rule="evenodd" clip-rule="evenodd" d="M10.6772 1.46393H7.19899C6.93812 1.46393 6.67725 1.20306 6.67725 0.942192C6.67725 0.681322 6.93812 0.333496 7.19899 0.333496H10.5903C10.9381 0.333496 11.199 0.594366 11.199 0.942192C11.199 1.29002 10.9381 1.46393 10.6772 1.46393Z" fill="white"/>
</svg>
