<svg width="20" height="21" viewBox="0 0 20 21" fill="none" xmlns="http://www.w3.org/2000/svg">
<path fill-rule="evenodd" clip-rule="evenodd" d="M3.36427 3.20837C3.58314 4.00141 4.30988 4.58337 5.17188 4.58337C6.0347 4.58337 6.76089 4.00141 6.97955 3.20837H19.5469V2.20837H6.97955C6.76089 1.41533 6.0347 0.833374 5.17188 0.833374C4.30988 0.833374 3.58314 1.41533 3.36427 2.20837H0.796875V3.20837H3.36427ZM11.9795 10.3334H19.5469V11.3334H11.9795C11.7609 12.1264 11.0347 12.7084 10.1719 12.7084C9.30988 12.7084 8.58314 12.1264 8.36427 11.3334H0.796875V10.3334H8.36427C8.58314 9.54033 9.30988 8.95837 10.1719 8.95837C11.0347 8.95837 11.7609 9.54033 11.9795 10.3334ZM0.796875 19.4584V18.4584H13.3643C13.5831 17.6653 14.3099 17.0834 15.1719 17.0834C16.0347 17.0834 16.7609 17.6653 16.9795 18.4584H19.5469V19.4584H16.9795C16.7609 20.2514 16.0347 20.8334 15.1719 20.8334C14.3099 20.8334 13.5831 20.2514 13.3643 19.4584H0.796875Z" fill="white"/>
</svg>
