<svg width="12" height="19" viewBox="0 0 12 19" fill="none" xmlns="http://www.w3.org/2000/svg">
<path d="M11.5751 7.211H10.8155V5.06755C10.8155 3.71797 10.2876 2.40808 9.36052 1.45543C8.44635 0.516017 7.23605 0 5.96137 0C3.34764 0 1.18455 2.289 1.18455 5.08078V7.211H0.450644C0.141631 7.27716 0 7.51532 0 7.79318V8.60028V10.2277V13.4429C0.321888 16.5919 2.90987 19 6 19C9.103 19 11.6781 16.5919 12 13.4429V10.2013V8.60028V7.77994C12 7.51532 11.8584 7.27716 11.5751 7.211ZM7.14592 14.938V15.2159C7.14592 15.2953 7.14592 15.3747 7.13305 15.454C7.08155 15.679 6.99142 15.8642 6.81116 16.0494C6.59228 16.3008 6.33476 16.4067 6 16.4067C5.69099 16.4067 5.40773 16.3141 5.18884 16.0494C5.03434 15.8774 4.91846 15.679 4.87983 15.454C4.87983 15.3614 4.8412 15.2953 4.8412 15.2159V15.0703L5.15022 11.6964L5.12446 11.6831C4.8927 11.4185 4.76395 11.1142 4.76395 10.7702C4.76395 10.413 4.8927 10.1219 5.12446 9.85724C5.35622 9.59262 5.66524 9.47354 6 9.47354C6.34764 9.47354 6.64378 9.59262 6.87554 9.85724C7.13305 10.1086 7.27468 10.3997 7.27468 10.7702C7.27468 11.1142 7.13305 11.4185 6.87554 11.6831V11.6964L7.14592 14.938ZM8.92275 7.211H3.09013V5.08078C3.09013 3.36072 4.39056 1.94499 5.96137 1.94499C6.72103 1.94499 7.45494 2.2493 7.99571 2.83148C8.57511 3.42688 8.90987 4.23398 8.90987 5.06755V7.211H8.92275Z" fill="#F2A900"/>
</svg>
