<svg width="30" height="30" viewBox="0 0 30 30" fill="none" xmlns="http://www.w3.org/2000/svg">
<path fill-rule="evenodd" clip-rule="evenodd" d="M7 11L10 15H4L7 11Z" fill="white"/>
<path fill-rule="evenodd" clip-rule="evenodd" d="M23 19L20 15H26L23 19Z" fill="white"/>
<path d="M24 15C24 13.3373 23.5394 11.7071 22.6693 10.2903C21.7993 8.87345 20.5537 7.72532 19.0708 6.97327C17.5879 6.22121 15.9257 5.89464 14.2685 6.02977C12.6114 6.1649 11.024 6.75646 9.68256 7.73881L10.845 9.32613C11.8932 8.55852 13.1335 8.09628 14.4284 7.99069C15.7234 7.8851 17.0222 8.14028 18.1809 8.72793C19.3396 9.31558 20.3129 10.2127 20.9928 11.3198C21.6727 12.427 22.0326 13.7008 22.0326 15H24Z" fill="white"/>
<path d="M6 15C6 16.6627 6.46059 18.2929 7.33067 19.7097C8.20075 21.1266 9.44631 22.2747 10.9292 23.0267C12.4121 23.7788 14.0743 24.1054 15.7315 23.9702C17.3886 23.8351 18.976 23.2435 20.3174 22.2612L19.1055 20.6063C18.0698 21.3648 16.8442 21.8215 15.5648 21.9258C14.2853 22.0302 13.0019 21.778 11.857 21.1974C10.712 20.6167 9.75036 19.7303 9.07858 18.6363C8.4068 17.5424 8.05118 16.2837 8.05118 15H6Z" fill="white"/>
</svg>
