<svg width="30" height="31" viewBox="0 0 30 31" fill="none" xmlns="http://www.w3.org/2000/svg">
<mask id="path-1-outside-1_486_6896" maskUnits="userSpaceOnUse" x="3.65796" y="4.09619" width="22" height="22" fill="black">
<rect fill="white" x="3.65796" y="4.09619" width="22" height="22"/>
<path fill-rule="evenodd" clip-rule="evenodd" d="M13.1132 6.59619C13.1132 6.32005 13.3371 6.09619 13.6132 6.09619H15.7556C16.0318 6.09619 16.2556 6.32005 16.2556 6.59619V7.69622C16.2556 7.92776 16.4152 8.12712 16.637 8.19389C17.65 8.49897 18.5628 9.03529 19.3141 9.74151C19.4826 9.89997 19.7349 9.93833 19.9352 9.82265L20.8896 9.27166C21.1287 9.13359 21.4345 9.21553 21.5726 9.45467L22.6438 11.31C22.7819 11.5492 22.6999 11.855 22.4608 11.9931L21.5079 12.5432C21.3076 12.6588 21.2147 12.8964 21.2674 13.1216C21.3837 13.6184 21.4452 14.1362 21.4452 14.6684C21.4452 15.2006 21.3837 15.7185 21.2674 16.2153C21.2147 16.4405 21.3076 16.678 21.5079 16.7937L22.4608 17.3439C22.6999 17.4819 22.7819 17.7877 22.6438 18.0269L21.5726 19.8822C21.4345 20.1214 21.1287 20.2033 20.8896 20.0652L19.9352 19.5142C19.7348 19.3986 19.4826 19.4369 19.314 19.5954C18.5628 20.3016 17.65 20.8379 16.637 21.143C16.4152 21.2097 16.2556 21.4091 16.2556 21.6406V22.7407C16.2556 23.0168 16.0318 23.2407 15.7556 23.2407H13.6132C13.3371 23.2407 13.1132 23.0168 13.1132 22.7407V21.6406C13.1132 21.4091 12.9536 21.2097 12.7319 21.143C11.7189 20.8379 10.8061 20.3016 10.0548 19.5954C9.88625 19.4369 9.63402 19.3986 9.43367 19.5143L8.47924 20.0653C8.24009 20.2034 7.9343 20.1214 7.79623 19.8823L6.72503 18.0269C6.58696 17.7878 6.6689 17.482 6.90804 17.3439L7.86095 16.7937C8.06127 16.6781 8.15415 16.4405 8.10143 16.2153C7.98515 15.7185 7.92365 15.2007 7.92365 14.6684C7.92365 14.1362 7.98515 13.6184 8.10142 13.1216C8.15414 12.8964 8.06126 12.6588 7.86094 12.5431L6.90806 11.993C6.66891 11.8549 6.58697 11.5491 6.72504 11.31L7.79624 9.45462C7.93431 9.21548 8.24011 9.13354 8.47925 9.27161L9.43364 9.82262C9.63399 9.9383 9.88622 9.89994 10.0548 9.74148C10.8061 9.03528 11.7189 8.49896 12.7319 8.19389C12.9536 8.12712 13.1132 7.92776 13.1132 7.69622V6.59619Z"/>
</mask>
<path d="M6.90806 11.993L5.90806 13.7251L6.90806 11.993ZM6.72504 11.31L4.99299 10.31L6.72504 11.31ZM7.86094 12.5431L8.86094 10.8111L7.86094 12.5431ZM7.86095 16.7937L6.86095 15.0617L7.86095 16.7937ZM8.10143 16.2153L10.0488 15.7595L8.10143 16.2153ZM6.72503 18.0269L4.99298 19.0269L6.72503 18.0269ZM6.90804 17.3439L5.90804 15.6119L6.90804 17.3439ZM8.47924 20.0653L7.47924 18.3332L8.47924 20.0653ZM7.79623 19.8823L9.52828 18.8823L7.79623 19.8823ZM9.43367 19.5143L8.43367 17.7822L9.43367 19.5143ZM12.7319 21.143L12.1551 23.058L12.7319 21.143ZM16.637 21.143L16.0602 19.2279L16.637 21.143ZM20.8896 20.0652L21.8896 18.3332L20.8896 20.0652ZM22.4608 17.3439L21.4608 19.0759L22.4608 17.3439ZM22.6438 18.0269L20.9117 17.0269L22.6438 18.0269ZM21.5079 12.5432L20.5079 10.8111L21.5079 12.5432ZM21.2674 13.1216L19.32 13.5774L21.2674 13.1216ZM22.6438 11.31L24.3758 10.31L22.6438 11.31ZM22.4608 11.9931L23.4608 13.7251L22.4608 11.9931ZM20.8896 9.27166L19.8896 7.53961L20.8896 9.27166ZM19.3141 9.74151L17.9442 11.1987L19.3141 9.74151ZM19.9352 9.82265L20.9352 11.5547L19.9352 9.82265ZM16.637 8.19389L16.0602 10.1089L16.637 8.19389ZM19.9352 19.5142L18.9352 21.2463L19.9352 19.5142ZM19.314 19.5954L17.9442 18.1381L19.314 19.5954ZM7.79624 9.45462L6.06419 8.45462L7.79624 9.45462ZM8.47925 9.27161L7.47925 11.0037L8.47925 9.27161ZM15.7556 4.09619H13.6132V8.09619H15.7556V4.09619ZM18.2556 7.69622V6.59619H14.2556V7.69622H18.2556ZM16.0602 10.1089C16.7706 10.3229 17.4135 10.6998 17.9442 11.1987L20.6839 8.28428C19.7122 7.37079 18.5293 6.67506 17.2137 6.27885L16.0602 10.1089ZM19.8896 7.53961L18.9352 8.0906L20.9352 11.5547L21.8896 11.0037L19.8896 7.53961ZM24.3758 10.31L23.3046 8.45467L19.8405 10.4547L20.9117 12.31L24.3758 10.31ZM22.5079 14.2752L23.4608 13.7251L21.4608 10.261L20.5079 10.8111L22.5079 14.2752ZM19.32 13.5774C19.4016 13.9258 19.4452 14.2908 19.4452 14.6684H23.4452C23.4452 13.9817 23.3658 13.3109 23.2148 12.6658L19.32 13.5774ZM19.4452 14.6684C19.4452 15.0461 19.4016 15.411 19.32 15.7595L23.2148 16.6711C23.3658 16.026 23.4452 15.3552 23.4452 14.6684H19.4452ZM23.4608 15.6118L22.5079 15.0617L20.5079 18.5258L21.4608 19.0759L23.4608 15.6118ZM23.3047 20.8822L24.3759 19.0269L20.9117 17.0269L19.8406 18.8822L23.3047 20.8822ZM18.9352 21.2463L19.8896 21.7973L21.8896 18.3332L20.9352 17.7822L18.9352 21.2463ZM17.9442 18.1381C17.4134 18.6371 16.7706 19.014 16.0602 19.2279L17.2137 23.058C18.5293 22.6618 19.7121 21.9661 20.6839 21.0526L17.9442 18.1381ZM18.2556 22.7407V21.6406H14.2556V22.7407H18.2556ZM13.6132 25.2407H15.7556V21.2407H13.6132V25.2407ZM11.1132 21.6406V22.7407H15.1132V21.6406H11.1132ZM13.3086 19.2279C12.5982 19.014 11.9554 18.6371 11.4246 18.1381L8.68499 21.0526C9.65675 21.9661 10.8396 22.6618 12.1551 23.058L13.3086 19.2279ZM9.47924 21.7973L10.4337 21.2463L8.43367 17.7822L7.47924 18.3332L9.47924 21.7973ZM4.99298 19.0269L6.06418 20.8823L9.52828 18.8823L8.45708 17.0269L4.99298 19.0269ZM6.86095 15.0617L5.90804 15.6119L7.90804 19.076L8.86095 18.5258L6.86095 15.0617ZM10.0488 15.7595C9.96724 15.411 9.92365 15.0461 9.92365 14.6684H5.92365C5.92365 15.3552 6.00306 16.026 6.15407 16.6711L10.0488 15.7595ZM9.92365 14.6684C9.92365 14.2908 9.96724 13.9258 10.0488 13.5774L6.15406 12.6658C6.00306 13.3109 5.92365 13.9817 5.92365 14.6684H9.92365ZM5.90806 13.7251L6.86094 14.2752L8.86094 10.8111L7.90806 10.261L5.90806 13.7251ZM6.06419 8.45462L4.99299 10.31L8.45709 12.31L9.52829 10.4546L6.06419 8.45462ZM10.4336 8.09057L9.47925 7.53956L7.47925 11.0037L8.43364 11.5547L10.4336 8.09057ZM11.4246 11.1987C11.9554 10.6998 12.5982 10.3229 13.3086 10.1089L12.1551 6.27885C10.8395 6.67505 9.65671 7.37077 8.68496 8.28424L11.4246 11.1987ZM11.1132 6.59619V7.69622H15.1132V6.59619H11.1132ZM13.3086 10.1089C14.3079 9.80798 15.1132 8.87857 15.1132 7.69622H11.1132C11.1132 6.97695 11.5993 6.44626 12.1551 6.27885L13.3086 10.1089ZM7.90806 10.261C8.62549 10.6752 8.87131 11.5925 8.45709 12.31L4.99299 10.31C4.30264 11.5057 4.71233 13.0347 5.90806 13.7251L7.90806 10.261ZM10.0488 13.5774C10.2865 12.562 9.8837 11.4016 8.86094 10.8111L6.86094 14.2752C6.23883 13.916 6.02182 13.2308 6.15406 12.6658L10.0488 13.5774ZM8.86095 18.5258C9.88371 17.9353 10.2865 16.7749 10.0488 15.7595L6.15407 16.6711C6.02183 16.1061 6.23883 15.4209 6.86095 15.0617L8.86095 18.5258ZM8.45708 17.0269C8.87129 17.7444 8.62548 18.6617 7.90804 19.076L5.90804 15.6119C4.71231 16.3022 4.30262 17.8312 4.99298 19.0269L8.45708 17.0269ZM7.47924 18.3332C8.19668 17.919 9.11406 18.1648 9.52828 18.8823L6.06418 20.8823C6.75453 22.078 8.28351 22.4877 9.47924 21.7973L7.47924 18.3332ZM11.4246 18.1381C10.6636 17.4228 9.45637 17.1917 8.43367 17.7822L10.4337 21.2463C9.81167 21.6054 9.10889 21.4511 8.68499 21.0526L11.4246 18.1381ZM15.1132 21.6406C15.1132 20.4583 14.3079 19.5289 13.3086 19.2279L12.1551 23.058C11.5992 22.8906 11.1132 22.3599 11.1132 21.6406H15.1132ZM13.6132 21.2407C14.4416 21.2407 15.1132 21.9122 15.1132 22.7407H11.1132C11.1132 24.1214 12.2325 25.2407 13.6132 25.2407V21.2407ZM14.2556 22.7407C14.2556 21.9123 14.9272 21.2407 15.7556 21.2407V25.2407C17.1363 25.2407 18.2556 24.1214 18.2556 22.7407H14.2556ZM16.0602 19.2279C15.0609 19.5289 14.2556 20.4583 14.2556 21.6406H18.2556C18.2556 22.3599 17.7696 22.8906 17.2137 23.058L16.0602 19.2279ZM19.8406 18.8822C20.2548 18.1648 21.1722 17.919 21.8896 18.3332L19.8896 21.7973C21.0853 22.4877 22.6143 22.078 23.3047 20.8822L19.8406 18.8822ZM21.4608 19.0759C20.7433 18.6617 20.4975 17.7443 20.9117 17.0269L24.3759 19.0269C25.0662 17.8311 24.6565 16.3022 23.4608 15.6118L21.4608 19.0759ZM19.32 15.7595C19.0824 16.7749 19.4851 17.9353 20.5079 18.5258L22.5079 15.0617C23.13 15.4208 23.347 16.1061 23.2148 16.6711L19.32 15.7595ZM20.5079 10.8111C19.4851 11.4016 19.0824 12.562 19.32 13.5774L23.2148 12.6658C23.347 13.2308 23.13 13.9161 22.5079 14.2752L20.5079 10.8111ZM20.9117 12.31C20.4975 11.5926 20.7433 10.6752 21.4608 10.261L23.4608 13.7251C24.6565 13.0347 25.0662 11.5058 24.3758 10.31L20.9117 12.31ZM21.8896 11.0037C21.1721 11.4179 20.2548 11.1721 19.8405 10.4547L23.3046 8.45467C22.6143 7.25894 21.0853 6.84925 19.8896 7.53961L21.8896 11.0037ZM17.9442 11.1987C18.7053 11.9141 19.9125 12.1452 20.9352 11.5547L18.9352 8.0906C19.5572 7.73149 20.26 7.8858 20.6839 8.28428L17.9442 11.1987ZM14.2556 7.69622C14.2556 8.87857 15.0609 9.80798 16.0602 10.1089L17.2137 6.27885C17.7696 6.44626 18.2556 6.97696 18.2556 7.69622H14.2556ZM8.43364 11.5547C9.45634 12.1451 10.6636 11.9141 11.4246 11.1987L8.68496 8.28424C9.10885 7.88577 9.81164 7.73146 10.4336 8.09057L8.43364 11.5547ZM13.6132 4.09619C12.2325 4.09619 11.1132 5.21548 11.1132 6.59619H15.1132C15.1132 7.42462 14.4417 8.09619 13.6132 8.09619V4.09619ZM20.9352 17.7822C19.9125 17.1917 18.7052 17.4227 17.9442 18.1381L20.6839 21.0526C20.26 21.4511 19.5572 21.6054 18.9352 21.2463L20.9352 17.7822ZM9.52829 10.4546C9.11408 11.1721 8.19669 11.4179 7.47925 11.0037L9.47925 7.53956C8.28352 6.8492 6.75454 7.25889 6.06419 8.45462L9.52829 10.4546ZM15.7556 8.09619C14.9272 8.09619 14.2556 7.42462 14.2556 6.59619H18.2556C18.2556 5.21548 17.1363 4.09619 15.7556 4.09619V8.09619Z" fill="white" mask="url(#path-1-outside-1_486_6896)"/>
<circle cx="14.8674" cy="14.6682" r="3.85763" stroke="white" stroke-width="2"/>
</svg>
