<svg width="18" height="19" viewBox="0 0 18 19" fill="none" xmlns="http://www.w3.org/2000/svg">
<path d="M8.99333 8.64218C8.88139 8.64218 8.77404 8.59774 8.6949 8.51864C8.61575 8.43954 8.57129 8.33224 8.57129 8.22037V1.4218C8.57129 1.30993 8.61575 1.20266 8.6949 1.12356C8.77404 1.04445 8.88139 1 8.99333 1C9.10643 0.999954 9.2151 1.044 9.29623 1.12276C9.37736 1.20153 9.42456 1.30881 9.42779 1.4218V8.22037C9.42456 8.33337 9.37736 8.44065 9.29623 8.51942C9.2151 8.59818 9.10643 8.64222 8.99333 8.64218Z" fill="#F2A900"/>
<path d="M8.99333 8.64218C8.88139 8.64218 8.77404 8.59774 8.6949 8.51864C8.61575 8.43954 8.57129 8.33225 8.57129 8.22037V1.4218C8.57129 1.30993 8.61575 1.20266 8.6949 1.12356C8.77404 1.04445 8.88139 1 8.99333 1C9.10643 0.999954 9.2151 1.044 9.29623 1.12276C9.37736 1.20153 9.42456 1.30881 9.42779 1.4218V8.22037C9.42456 8.33337 9.37736 8.44065 9.29623 8.51942C9.2151 8.59818 9.10643 8.64222 8.99333 8.64218" stroke="#F2A900" stroke-width="0.5"/>
<path d="M8.99442 18.0041C7.15241 18.0071 5.36605 17.3732 3.93833 16.2099C2.51062 15.0467 1.52943 13.4257 1.16116 11.6218C0.792888 9.81802 1.06019 7.94241 1.91777 6.3131C2.77535 4.68379 4.17043 3.40109 5.86635 2.68254C5.9703 2.64053 6.08644 2.64032 6.19054 2.68194C6.29465 2.72356 6.37863 2.80379 6.42492 2.90586C6.46695 3.00975 6.46716 3.12585 6.42552 3.22989C6.38388 3.33394 6.30362 3.41788 6.20149 3.46414C4.68828 4.1089 3.44435 5.25626 2.68014 6.71215C1.91592 8.16804 1.67833 9.84306 2.00755 11.4539C2.33677 13.0647 3.21258 14.5124 4.48686 15.5521C5.76113 16.5918 7.35565 17.1597 9.00064 17.1597C10.6456 17.1597 12.2401 16.5918 13.5144 15.5521C14.7886 14.5124 15.6645 13.0647 15.9937 11.4539C16.3229 9.84306 16.0854 8.16804 15.3211 6.71215C14.5569 5.25626 13.313 4.1089 11.7998 3.46414C11.7481 3.4425 11.7013 3.41082 11.662 3.37092C11.6228 3.33103 11.5918 3.28373 11.571 3.23177C11.5503 3.17981 11.54 3.12424 11.5409 3.06829C11.5418 3.01233 11.5538 2.95712 11.5763 2.90586C11.6226 2.80379 11.7066 2.72356 11.8107 2.68194C11.9148 2.64032 12.031 2.64053 12.1349 2.68254C13.8318 3.4015 15.2275 4.68526 16.085 6.31585C16.9424 7.94643 17.2088 9.82336 16.8389 11.628C16.469 13.4326 15.4857 15.0536 14.0557 16.2159C12.6258 17.3781 10.8375 18.01 8.99442 18.0041Z" fill="#F2A900" stroke="#F2A900" stroke-width="0.5"/>
</svg>
